<mxfile host="app.diagrams.net" agent="Mozilla/5.0 (Windows NT 10.0; Win64; x64) AppleWebKit/537.36 (KHTML, like Gecko) Chrome/138.0.0.0 Safari/537.36" version="28.0.9" pages="3">
  <diagram name="Use Case" id="5kiRr_p6RWpUHhfpp_wq">
    <mxGraphModel dx="925" dy="491" grid="1" gridSize="10" guides="1" tooltips="1" connect="1" arrows="1" fold="1" page="1" pageScale="1" pageWidth="850" pageHeight="1100" math="0" shadow="0">
      <root>
        <mxCell id="0" />
        <mxCell id="1" parent="0" />
        <mxCell id="bVwHYVgg4NJoSJZVDaYs-1" value="" style="rounded=0;whiteSpace=wrap;html=1;" vertex="1" parent="1">
          <mxGeometry x="630" y="220" width="470" height="410" as="geometry" />
        </mxCell>
        <mxCell id="bVwHYVgg4NJoSJZVDaYs-2" style="rounded=0;orthogonalLoop=1;jettySize=auto;html=1;entryX=0;entryY=0.5;entryDx=0;entryDy=0;" edge="1" parent="1" source="bVwHYVgg4NJoSJZVDaYs-3" target="bVwHYVgg4NJoSJZVDaYs-4">
          <mxGeometry relative="1" as="geometry" />
        </mxCell>
        <mxCell id="bVwHYVgg4NJoSJZVDaYs-3" value="Cashier" style="shape=umlActor;verticalLabelPosition=bottom;verticalAlign=top;html=1;outlineConnect=0;" vertex="1" parent="1">
          <mxGeometry x="520" y="395" width="30" height="60" as="geometry" />
        </mxCell>
        <mxCell id="bVwHYVgg4NJoSJZVDaYs-29" style="edgeStyle=orthogonalEdgeStyle;rounded=0;orthogonalLoop=1;jettySize=auto;html=1;exitX=0.5;exitY=1;exitDx=0;exitDy=0;entryX=0.5;entryY=0;entryDx=0;entryDy=0;dashed=1;endArrow=open;endFill=0;" edge="1" parent="1" source="bVwHYVgg4NJoSJZVDaYs-4" target="bVwHYVgg4NJoSJZVDaYs-20">
          <mxGeometry relative="1" as="geometry" />
        </mxCell>
        <mxCell id="bVwHYVgg4NJoSJZVDaYs-30" value="&amp;lt;&amp;lt;include&amp;gt;&amp;gt;" style="edgeLabel;html=1;align=center;verticalAlign=middle;resizable=0;points=[];" vertex="1" connectable="0" parent="bVwHYVgg4NJoSJZVDaYs-29">
          <mxGeometry x="-0.2213" relative="1" as="geometry">
            <mxPoint as="offset" />
          </mxGeometry>
        </mxCell>
        <mxCell id="bVwHYVgg4NJoSJZVDaYs-4" value="&lt;div&gt;&lt;font style=&quot;font-size: 10px;&quot;&gt;[UC-01]&lt;/font&gt;&lt;/div&gt;&lt;font style=&quot;font-size: 10px;&quot;&gt;Mengelola Pesanan&lt;/font&gt;" style="ellipse;whiteSpace=wrap;html=1;" vertex="1" parent="1">
          <mxGeometry x="700" y="310" width="140" height="71" as="geometry" />
        </mxCell>
        <mxCell id="bVwHYVgg4NJoSJZVDaYs-5" value="&lt;b&gt;Restoran Burger&lt;/b&gt;" style="text;html=1;align=center;verticalAlign=middle;resizable=0;points=[];autosize=1;strokeColor=none;fillColor=none;" vertex="1" parent="1">
          <mxGeometry x="805" y="217" width="120" height="30" as="geometry" />
        </mxCell>
        <mxCell id="bVwHYVgg4NJoSJZVDaYs-6" value="" style="endArrow=none;html=1;rounded=0;exitX=0.001;exitY=0.064;exitDx=0;exitDy=0;exitPerimeter=0;entryX=1.001;entryY=0.063;entryDx=0;entryDy=0;entryPerimeter=0;" edge="1" parent="1" source="bVwHYVgg4NJoSJZVDaYs-1" target="bVwHYVgg4NJoSJZVDaYs-1">
          <mxGeometry width="50" height="50" relative="1" as="geometry">
            <mxPoint x="800" y="98" as="sourcePoint" />
            <mxPoint x="920" y="176" as="targetPoint" />
          </mxGeometry>
        </mxCell>
        <mxCell id="bVwHYVgg4NJoSJZVDaYs-7" style="rounded=0;orthogonalLoop=1;jettySize=auto;html=1;entryX=0;entryY=0.5;entryDx=0;entryDy=0;" edge="1" parent="1" source="bVwHYVgg4NJoSJZVDaYs-8" target="bVwHYVgg4NJoSJZVDaYs-4">
          <mxGeometry relative="1" as="geometry" />
        </mxCell>
        <mxCell id="bVwHYVgg4NJoSJZVDaYs-8" value="Customer" style="shape=umlActor;verticalLabelPosition=bottom;verticalAlign=top;html=1;outlineConnect=0;" vertex="1" parent="1">
          <mxGeometry x="520" y="250" width="30" height="60" as="geometry" />
        </mxCell>
        <mxCell id="bVwHYVgg4NJoSJZVDaYs-14" style="edgeStyle=orthogonalEdgeStyle;rounded=0;orthogonalLoop=1;jettySize=auto;html=1;entryX=1;entryY=0.5;entryDx=0;entryDy=0;" edge="1" parent="1" source="bVwHYVgg4NJoSJZVDaYs-15" target="bVwHYVgg4NJoSJZVDaYs-28">
          <mxGeometry relative="1" as="geometry">
            <mxPoint x="1060.0000000000018" y="345.5" as="targetPoint" />
          </mxGeometry>
        </mxCell>
        <mxCell id="bVwHYVgg4NJoSJZVDaYs-15" value="Cook" style="shape=umlActor;verticalLabelPosition=bottom;verticalAlign=top;html=1;outlineConnect=0;" vertex="1" parent="1">
          <mxGeometry x="1200" y="315.5" width="30" height="60" as="geometry" />
        </mxCell>
        <mxCell id="bVwHYVgg4NJoSJZVDaYs-20" value="&lt;div&gt;&lt;span style=&quot;font-size: 10px;&quot;&gt;[UC-02]&lt;/span&gt;&lt;/div&gt;&lt;div&gt;&lt;span style=&quot;font-size: 10px;&quot;&gt;Proses Pembayaran&lt;/span&gt;&lt;/div&gt;" style="ellipse;whiteSpace=wrap;html=1;" vertex="1" parent="1">
          <mxGeometry x="700" y="470" width="140" height="71" as="geometry" />
        </mxCell>
        <mxCell id="bVwHYVgg4NJoSJZVDaYs-26" value="&lt;div&gt;&lt;span style=&quot;font-size: 10px;&quot;&gt;[UC-03]&lt;/span&gt;&lt;/div&gt;&lt;div&gt;&lt;span style=&quot;font-size: 10px;&quot;&gt;Bayar dengan Kartu&lt;/span&gt;&lt;/div&gt;" style="ellipse;whiteSpace=wrap;html=1;" vertex="1" parent="1">
          <mxGeometry x="910" y="426" width="140" height="71" as="geometry" />
        </mxCell>
        <mxCell id="bVwHYVgg4NJoSJZVDaYs-27" value="&lt;div&gt;&lt;span style=&quot;font-size: 10px;&quot;&gt;[UC-04]&lt;/span&gt;&lt;/div&gt;&lt;div&gt;&lt;span style=&quot;font-size: 10px;&quot;&gt;Bayar dengan Tunai&lt;/span&gt;&lt;/div&gt;" style="ellipse;whiteSpace=wrap;html=1;" vertex="1" parent="1">
          <mxGeometry x="910" y="530" width="140" height="71" as="geometry" />
        </mxCell>
        <mxCell id="bVwHYVgg4NJoSJZVDaYs-28" value="&lt;div&gt;&lt;span style=&quot;font-size: 10px;&quot;&gt;[UC-05]&lt;/span&gt;&lt;/div&gt;&lt;div&gt;&lt;span style=&quot;font-size: 10px;&quot;&gt;Siapkan Burger&lt;/span&gt;&lt;/div&gt;" style="ellipse;whiteSpace=wrap;html=1;" vertex="1" parent="1">
          <mxGeometry x="910" y="310" width="140" height="71" as="geometry" />
        </mxCell>
        <mxCell id="bVwHYVgg4NJoSJZVDaYs-32" style="rounded=0;orthogonalLoop=1;jettySize=auto;html=1;entryX=1;entryY=0.5;entryDx=0;entryDy=0;exitX=0;exitY=0.5;exitDx=0;exitDy=0;endArrow=block;endFill=0;" edge="1" parent="1" source="bVwHYVgg4NJoSJZVDaYs-26" target="bVwHYVgg4NJoSJZVDaYs-20">
          <mxGeometry relative="1" as="geometry">
            <mxPoint x="850" y="490" as="sourcePoint" />
            <mxPoint x="990" y="561" as="targetPoint" />
          </mxGeometry>
        </mxCell>
        <mxCell id="bVwHYVgg4NJoSJZVDaYs-33" style="rounded=0;orthogonalLoop=1;jettySize=auto;html=1;entryX=1;entryY=0.5;entryDx=0;entryDy=0;exitX=0;exitY=0.5;exitDx=0;exitDy=0;endArrow=block;endFill=0;" edge="1" parent="1" source="bVwHYVgg4NJoSJZVDaYs-27" target="bVwHYVgg4NJoSJZVDaYs-20">
          <mxGeometry relative="1" as="geometry">
            <mxPoint x="930" y="480" as="sourcePoint" />
            <mxPoint x="870" y="524" as="targetPoint" />
          </mxGeometry>
        </mxCell>
      </root>
    </mxGraphModel>
  </diagram>
  <diagram id="X_asb5ak0hALh_8tYet1" name="ERD">
    <mxGraphModel dx="1827" dy="758" grid="1" gridSize="10" guides="1" tooltips="1" connect="1" arrows="1" fold="1" page="1" pageScale="1" pageWidth="850" pageHeight="1100" math="0" shadow="0">
      <root>
        <mxCell id="0" />
        <mxCell id="1" parent="0" />
        <mxCell id="IgighBexNKFndrwZGRQ2-1" style="rounded=0;orthogonalLoop=1;jettySize=auto;html=1;entryX=0.5;entryY=1;entryDx=0;entryDy=0;exitX=0;exitY=0.5;exitDx=0;exitDy=0;endArrow=none;startFill=0;fontFamily=Verdana;" edge="1" parent="1" source="IgighBexNKFndrwZGRQ2-8" target="IgighBexNKFndrwZGRQ2-102">
          <mxGeometry relative="1" as="geometry">
            <mxPoint x="812" y="385" as="sourcePoint" />
          </mxGeometry>
        </mxCell>
        <mxCell id="IgighBexNKFndrwZGRQ2-8" value="User" style="rounded=0;whiteSpace=wrap;html=1;fontFamily=Verdana;" vertex="1" parent="1">
          <mxGeometry x="837" y="390" width="120" height="60" as="geometry" />
        </mxCell>
        <mxCell id="IgighBexNKFndrwZGRQ2-9" value="&lt;b&gt;#user_id&lt;/b&gt;" style="ellipse;whiteSpace=wrap;html=1;fontFamily=Verdana;" vertex="1" parent="1">
          <mxGeometry x="592" y="420" width="110" height="40" as="geometry" />
        </mxCell>
        <mxCell id="IgighBexNKFndrwZGRQ2-10" value="name" style="ellipse;whiteSpace=wrap;html=1;fontFamily=Verdana;" vertex="1" parent="1">
          <mxGeometry x="602" y="355" width="90" height="40" as="geometry" />
        </mxCell>
        <mxCell id="IgighBexNKFndrwZGRQ2-11" value="created_at" style="ellipse;whiteSpace=wrap;html=1;fontFamily=Verdana;" vertex="1" parent="1">
          <mxGeometry x="762" y="255" width="90" height="40" as="geometry" />
        </mxCell>
        <mxCell id="IgighBexNKFndrwZGRQ2-12" value="delete_at" style="ellipse;whiteSpace=wrap;html=1;fontFamily=Verdana;" vertex="1" parent="1">
          <mxGeometry x="747" y="510" width="90" height="40" as="geometry" />
        </mxCell>
        <mxCell id="IgighBexNKFndrwZGRQ2-13" value="update_at" style="ellipse;whiteSpace=wrap;html=1;fontFamily=Verdana;" vertex="1" parent="1">
          <mxGeometry x="663" y="475" width="90" height="40" as="geometry" />
        </mxCell>
        <mxCell id="IgighBexNKFndrwZGRQ2-15" value="" style="endArrow=none;html=1;rounded=0;exitX=0;exitY=0.5;exitDx=0;exitDy=0;entryX=1;entryY=0.5;entryDx=0;entryDy=0;fontFamily=Verdana;" edge="1" parent="1" source="IgighBexNKFndrwZGRQ2-8" target="IgighBexNKFndrwZGRQ2-9">
          <mxGeometry width="50" height="50" relative="1" as="geometry">
            <mxPoint x="1047" y="430" as="sourcePoint" />
            <mxPoint x="702" y="455" as="targetPoint" />
          </mxGeometry>
        </mxCell>
        <mxCell id="IgighBexNKFndrwZGRQ2-16" value="" style="endArrow=none;html=1;rounded=0;entryX=1;entryY=1;entryDx=0;entryDy=0;exitX=0;exitY=0.5;exitDx=0;exitDy=0;fontFamily=Verdana;" edge="1" parent="1" source="IgighBexNKFndrwZGRQ2-8" target="IgighBexNKFndrwZGRQ2-10">
          <mxGeometry width="50" height="50" relative="1" as="geometry">
            <mxPoint x="897" y="390" as="sourcePoint" />
            <mxPoint x="772" y="360" as="targetPoint" />
          </mxGeometry>
        </mxCell>
        <mxCell id="IgighBexNKFndrwZGRQ2-17" value="" style="endArrow=none;html=1;rounded=0;entryX=0.5;entryY=1;entryDx=0;entryDy=0;exitX=0;exitY=0.5;exitDx=0;exitDy=0;fontFamily=Verdana;" edge="1" parent="1" source="IgighBexNKFndrwZGRQ2-8" target="IgighBexNKFndrwZGRQ2-11">
          <mxGeometry width="50" height="50" relative="1" as="geometry">
            <mxPoint x="907" y="400" as="sourcePoint" />
            <mxPoint x="907" y="310" as="targetPoint" />
          </mxGeometry>
        </mxCell>
        <mxCell id="IgighBexNKFndrwZGRQ2-19" value="" style="endArrow=none;html=1;rounded=0;exitX=0;exitY=0.5;exitDx=0;exitDy=0;fontFamily=Verdana;" edge="1" parent="1" source="IgighBexNKFndrwZGRQ2-8" target="IgighBexNKFndrwZGRQ2-13">
          <mxGeometry width="50" height="50" relative="1" as="geometry">
            <mxPoint x="907" y="460" as="sourcePoint" />
            <mxPoint x="772" y="520" as="targetPoint" />
          </mxGeometry>
        </mxCell>
        <mxCell id="IgighBexNKFndrwZGRQ2-20" value="" style="endArrow=none;html=1;rounded=0;exitX=0;exitY=0.5;exitDx=0;exitDy=0;entryX=0.5;entryY=0;entryDx=0;entryDy=0;fontFamily=Verdana;" edge="1" parent="1" source="IgighBexNKFndrwZGRQ2-8" target="IgighBexNKFndrwZGRQ2-12">
          <mxGeometry width="50" height="50" relative="1" as="geometry">
            <mxPoint x="907" y="460" as="sourcePoint" />
            <mxPoint x="907" y="550" as="targetPoint" />
          </mxGeometry>
        </mxCell>
        <mxCell id="IgighBexNKFndrwZGRQ2-21" style="rounded=0;orthogonalLoop=1;jettySize=auto;html=1;entryX=1;entryY=0;entryDx=0;entryDy=0;endArrow=none;startFill=0;exitX=0;exitY=0.5;exitDx=0;exitDy=0;" edge="1" parent="1" source="IgighBexNKFndrwZGRQ2-24" target="IgighBexNKFndrwZGRQ2-104">
          <mxGeometry relative="1" as="geometry" />
        </mxCell>
        <mxCell id="IgighBexNKFndrwZGRQ2-24" value="Menu Items" style="rounded=0;whiteSpace=wrap;html=1;fontFamily=Verdana;" vertex="1" parent="1">
          <mxGeometry x="841" y="769" width="120" height="60" as="geometry" />
        </mxCell>
        <mxCell id="IgighBexNKFndrwZGRQ2-25" value="&lt;span style=&quot;font-weight: 700; text-align: left; text-wrap-mode: nowrap;&quot;&gt;#item_id&lt;/span&gt;" style="ellipse;whiteSpace=wrap;html=1;fontFamily=Verdana;" vertex="1" parent="1">
          <mxGeometry x="721" y="649" width="148" height="40" as="geometry" />
        </mxCell>
        <mxCell id="IgighBexNKFndrwZGRQ2-26" value="&lt;span style=&quot;text-align: left; text-wrap-mode: nowrap;&quot;&gt;name&lt;/span&gt;" style="ellipse;whiteSpace=wrap;html=1;fontFamily=Verdana;" vertex="1" parent="1">
          <mxGeometry x="671" y="699" width="90" height="40" as="geometry" />
        </mxCell>
        <mxCell id="IgighBexNKFndrwZGRQ2-27" value="&lt;span style=&quot;text-align: left; text-wrap-mode: nowrap;&quot;&gt;description&lt;/span&gt;" style="ellipse;whiteSpace=wrap;html=1;fontFamily=Verdana;" vertex="1" parent="1">
          <mxGeometry x="601" y="739" width="110" height="40" as="geometry" />
        </mxCell>
        <mxCell id="IgighBexNKFndrwZGRQ2-28" value="&lt;span style=&quot;text-align: left; text-wrap-mode: nowrap;&quot;&gt;created_at&lt;/span&gt;" style="ellipse;whiteSpace=wrap;html=1;fontFamily=Verdana;" vertex="1" parent="1">
          <mxGeometry x="601" y="838.89" width="90" height="40" as="geometry" />
        </mxCell>
        <mxCell id="IgighBexNKFndrwZGRQ2-29" value="" style="endArrow=none;html=1;rounded=0;exitX=0;exitY=0.5;exitDx=0;exitDy=0;entryX=0.5;entryY=1;entryDx=0;entryDy=0;fontFamily=Verdana;" edge="1" parent="1" source="IgighBexNKFndrwZGRQ2-24" target="IgighBexNKFndrwZGRQ2-25">
          <mxGeometry width="50" height="50" relative="1" as="geometry">
            <mxPoint x="1051" y="808" as="sourcePoint" />
            <mxPoint x="1101" y="758" as="targetPoint" />
          </mxGeometry>
        </mxCell>
        <mxCell id="IgighBexNKFndrwZGRQ2-30" value="" style="endArrow=none;html=1;rounded=0;entryX=1;entryY=1;entryDx=0;entryDy=0;exitX=0;exitY=0.5;exitDx=0;exitDy=0;fontFamily=Verdana;" edge="1" parent="1" source="IgighBexNKFndrwZGRQ2-24" target="IgighBexNKFndrwZGRQ2-26">
          <mxGeometry width="50" height="50" relative="1" as="geometry">
            <mxPoint x="901" y="768" as="sourcePoint" />
            <mxPoint x="776" y="738" as="targetPoint" />
          </mxGeometry>
        </mxCell>
        <mxCell id="IgighBexNKFndrwZGRQ2-31" value="" style="endArrow=none;html=1;rounded=0;entryX=1;entryY=0.5;entryDx=0;entryDy=0;exitX=0;exitY=0.5;exitDx=0;exitDy=0;fontFamily=Verdana;" edge="1" parent="1" source="IgighBexNKFndrwZGRQ2-24" target="IgighBexNKFndrwZGRQ2-27">
          <mxGeometry width="50" height="50" relative="1" as="geometry">
            <mxPoint x="911" y="778" as="sourcePoint" />
            <mxPoint x="911" y="688" as="targetPoint" />
          </mxGeometry>
        </mxCell>
        <mxCell id="IgighBexNKFndrwZGRQ2-32" value="" style="endArrow=none;html=1;rounded=0;entryX=1;entryY=0;entryDx=0;entryDy=0;fontFamily=Verdana;" edge="1" parent="1" target="IgighBexNKFndrwZGRQ2-28">
          <mxGeometry width="50" height="50" relative="1" as="geometry">
            <mxPoint x="841" y="799" as="sourcePoint" />
            <mxPoint x="776" y="898" as="targetPoint" />
          </mxGeometry>
        </mxCell>
        <mxCell id="IgighBexNKFndrwZGRQ2-33" value="&lt;span style=&quot;text-align: left; text-wrap-mode: nowrap;&quot;&gt;price&lt;/span&gt;" style="ellipse;whiteSpace=wrap;html=1;fontFamily=Verdana;" vertex="1" parent="1">
          <mxGeometry x="572" y="788.89" width="90" height="40" as="geometry" />
        </mxCell>
        <mxCell id="IgighBexNKFndrwZGRQ2-34" value="" style="endArrow=none;html=1;rounded=0;entryX=1;entryY=0.5;entryDx=0;entryDy=0;exitX=0;exitY=0.5;exitDx=0;exitDy=0;fontFamily=Verdana;" edge="1" parent="1" source="IgighBexNKFndrwZGRQ2-24" target="IgighBexNKFndrwZGRQ2-33">
          <mxGeometry width="50" height="50" relative="1" as="geometry">
            <mxPoint x="911" y="778" as="sourcePoint" />
            <mxPoint x="991" y="698" as="targetPoint" />
          </mxGeometry>
        </mxCell>
        <mxCell id="IgighBexNKFndrwZGRQ2-35" value="&lt;span style=&quot;font-weight: 700; text-align: left; text-wrap-mode: nowrap;&quot;&gt;#payment_id&lt;/span&gt;" style="ellipse;whiteSpace=wrap;html=1;fontFamily=Verdana;" vertex="1" parent="1">
          <mxGeometry x="1660" y="659" width="114" height="40" as="geometry" />
        </mxCell>
        <mxCell id="IgighBexNKFndrwZGRQ2-36" value="&lt;span style=&quot;text-align: left; text-wrap-mode: nowrap;&quot;&gt;payment_method&lt;/span&gt;" style="ellipse;whiteSpace=wrap;html=1;fontFamily=Verdana;" vertex="1" parent="1">
          <mxGeometry x="1689" y="718.89" width="134" height="40" as="geometry" />
        </mxCell>
        <mxCell id="IgighBexNKFndrwZGRQ2-37" value="&lt;div style=&quot;text-align: left;&quot;&gt;&lt;span style=&quot;background-color: transparent; color: light-dark(rgb(0, 0, 0), rgb(255, 255, 255)); text-wrap-mode: nowrap;&quot;&gt;amount_paid&lt;/span&gt;&lt;/div&gt;" style="ellipse;whiteSpace=wrap;html=1;fontFamily=Verdana;" vertex="1" parent="1">
          <mxGeometry x="1730" y="778.89" width="118" height="40" as="geometry" />
        </mxCell>
        <mxCell id="IgighBexNKFndrwZGRQ2-38" value="" style="endArrow=none;html=1;rounded=0;exitX=1;exitY=0.5;exitDx=0;exitDy=0;entryX=0;entryY=1;entryDx=0;entryDy=0;fontFamily=Verdana;" edge="1" parent="1" target="IgighBexNKFndrwZGRQ2-35">
          <mxGeometry width="50" height="50" relative="1" as="geometry">
            <mxPoint x="1605" y="800" as="sourcePoint" />
            <mxPoint x="1980" y="740" as="targetPoint" />
          </mxGeometry>
        </mxCell>
        <mxCell id="IgighBexNKFndrwZGRQ2-39" value="" style="endArrow=none;html=1;rounded=0;entryX=0;entryY=0.5;entryDx=0;entryDy=0;exitX=1;exitY=0.5;exitDx=0;exitDy=0;fontFamily=Verdana;" edge="1" parent="1" target="IgighBexNKFndrwZGRQ2-36">
          <mxGeometry width="50" height="50" relative="1" as="geometry">
            <mxPoint x="1605" y="800" as="sourcePoint" />
            <mxPoint x="1655" y="720" as="targetPoint" />
          </mxGeometry>
        </mxCell>
        <mxCell id="IgighBexNKFndrwZGRQ2-40" value="" style="endArrow=none;html=1;rounded=0;exitX=1;exitY=0.5;exitDx=0;exitDy=0;fontFamily=Verdana;entryX=0.002;entryY=0.424;entryDx=0;entryDy=0;entryPerimeter=0;" edge="1" parent="1" target="IgighBexNKFndrwZGRQ2-37">
          <mxGeometry width="50" height="50" relative="1" as="geometry">
            <mxPoint x="1605" y="800" as="sourcePoint" />
            <mxPoint x="1697" y="785" as="targetPoint" />
          </mxGeometry>
        </mxCell>
        <mxCell id="IgighBexNKFndrwZGRQ2-41" value="&lt;span style=&quot;text-align: left; text-wrap-mode: nowrap;&quot;&gt;payment_time&lt;/span&gt;" style="ellipse;whiteSpace=wrap;html=1;fontFamily=Verdana;" vertex="1" parent="1">
          <mxGeometry x="1695" y="828.89" width="112" height="40" as="geometry" />
        </mxCell>
        <mxCell id="IgighBexNKFndrwZGRQ2-42" value="" style="endArrow=none;html=1;rounded=0;entryX=0;entryY=0;entryDx=0;entryDy=0;exitX=1;exitY=0.5;exitDx=0;exitDy=0;fontFamily=Verdana;" edge="1" parent="1" target="IgighBexNKFndrwZGRQ2-41">
          <mxGeometry width="50" height="50" relative="1" as="geometry">
            <mxPoint x="1605" y="800" as="sourcePoint" />
            <mxPoint x="1870" y="680" as="targetPoint" />
          </mxGeometry>
        </mxCell>
        <mxCell id="IgighBexNKFndrwZGRQ2-58" value="&lt;b&gt;#order_id&lt;/b&gt;" style="ellipse;whiteSpace=wrap;html=1;fontFamily=Verdana;" vertex="1" parent="1">
          <mxGeometry x="1689" y="326" width="110" height="40" as="geometry" />
        </mxCell>
        <mxCell id="IgighBexNKFndrwZGRQ2-59" value="order_status" style="ellipse;whiteSpace=wrap;html=1;fontFamily=Verdana;" vertex="1" parent="1">
          <mxGeometry x="1709" y="380" width="90" height="40" as="geometry" />
        </mxCell>
        <mxCell id="IgighBexNKFndrwZGRQ2-60" value="total_amount" style="ellipse;whiteSpace=wrap;html=1;fontFamily=Verdana;dashed=1;" vertex="1" parent="1">
          <mxGeometry x="1709" y="435" width="90" height="40" as="geometry" />
        </mxCell>
        <mxCell id="IgighBexNKFndrwZGRQ2-61" value="" style="endArrow=none;html=1;rounded=0;exitX=1;exitY=0.5;exitDx=0;exitDy=0;entryX=0;entryY=1;entryDx=0;entryDy=0;fontFamily=Verdana;" edge="1" parent="1" target="IgighBexNKFndrwZGRQ2-58" source="IgighBexNKFndrwZGRQ2-132">
          <mxGeometry width="50" height="50" relative="1" as="geometry">
            <mxPoint x="1545" y="390" as="sourcePoint" />
            <mxPoint x="1745" y="380" as="targetPoint" />
          </mxGeometry>
        </mxCell>
        <mxCell id="IgighBexNKFndrwZGRQ2-62" value="" style="endArrow=none;html=1;rounded=0;entryX=0;entryY=0.5;entryDx=0;entryDy=0;exitX=1;exitY=0.5;exitDx=0;exitDy=0;fontFamily=Verdana;" edge="1" parent="1" target="IgighBexNKFndrwZGRQ2-59" source="IgighBexNKFndrwZGRQ2-132">
          <mxGeometry width="50" height="50" relative="1" as="geometry">
            <mxPoint x="1545" y="390" as="sourcePoint" />
            <mxPoint x="1420" y="360" as="targetPoint" />
          </mxGeometry>
        </mxCell>
        <mxCell id="IgighBexNKFndrwZGRQ2-63" value="" style="endArrow=none;html=1;rounded=0;entryX=0;entryY=0.5;entryDx=0;entryDy=0;exitX=1;exitY=0.5;exitDx=0;exitDy=0;fontFamily=Verdana;" edge="1" parent="1" target="IgighBexNKFndrwZGRQ2-60" source="IgighBexNKFndrwZGRQ2-132">
          <mxGeometry width="50" height="50" relative="1" as="geometry">
            <mxPoint x="1545" y="390" as="sourcePoint" />
            <mxPoint x="1555" y="310" as="targetPoint" />
          </mxGeometry>
        </mxCell>
        <mxCell id="IgighBexNKFndrwZGRQ2-64" value="order_time" style="ellipse;whiteSpace=wrap;html=1;fontFamily=Verdana;" vertex="1" parent="1">
          <mxGeometry x="1695" y="500" width="90" height="40" as="geometry" />
        </mxCell>
        <mxCell id="IgighBexNKFndrwZGRQ2-65" value="" style="endArrow=none;html=1;rounded=0;entryX=0.056;entryY=0.233;entryDx=0;entryDy=0;exitX=1;exitY=0.5;exitDx=0;exitDy=0;fontFamily=Verdana;entryPerimeter=0;" edge="1" parent="1" target="IgighBexNKFndrwZGRQ2-64" source="IgighBexNKFndrwZGRQ2-132">
          <mxGeometry width="50" height="50" relative="1" as="geometry">
            <mxPoint x="1545" y="390" as="sourcePoint" />
            <mxPoint x="1715" y="370" as="targetPoint" />
          </mxGeometry>
        </mxCell>
        <mxCell id="IgighBexNKFndrwZGRQ2-74" value="&lt;span style=&quot;font-size: 11px; text-wrap-mode: nowrap;&quot;&gt;&lt;b&gt;handle&lt;/b&gt;&lt;/span&gt;" style="rhombus;whiteSpace=wrap;html=1;fontFamily=Verdana;" vertex="1" parent="1">
          <mxGeometry x="1210" y="380" width="80" height="80" as="geometry" />
        </mxCell>
        <mxCell id="IgighBexNKFndrwZGRQ2-75" value="" style="endArrow=none;html=1;rounded=0;entryX=0;entryY=0.5;entryDx=0;entryDy=0;exitX=1;exitY=0.5;exitDx=0;exitDy=0;fontFamily=Verdana;" edge="1" parent="1" source="IgighBexNKFndrwZGRQ2-8" target="IgighBexNKFndrwZGRQ2-74">
          <mxGeometry width="50" height="50" relative="1" as="geometry">
            <mxPoint x="934.9999999999995" y="420" as="sourcePoint" />
            <mxPoint x="1050" y="400" as="targetPoint" />
            <Array as="points" />
          </mxGeometry>
        </mxCell>
        <mxCell id="IgighBexNKFndrwZGRQ2-76" value="1" style="edgeLabel;html=1;align=center;verticalAlign=middle;resizable=0;points=[];" connectable="0" vertex="1" parent="IgighBexNKFndrwZGRQ2-75">
          <mxGeometry x="-0.9387" relative="1" as="geometry">
            <mxPoint x="5" y="-10" as="offset" />
          </mxGeometry>
        </mxCell>
        <mxCell id="IgighBexNKFndrwZGRQ2-80" value="" style="endArrow=none;html=1;rounded=0;entryX=0;entryY=0.5;entryDx=0;entryDy=0;exitX=1;exitY=0.5;exitDx=0;exitDy=0;fontFamily=Verdana;" edge="1" parent="1" source="IgighBexNKFndrwZGRQ2-74">
          <mxGeometry width="50" height="50" relative="1" as="geometry">
            <mxPoint x="1286" y="420" as="sourcePoint" />
            <mxPoint x="1575.9999999999995" y="420" as="targetPoint" />
          </mxGeometry>
        </mxCell>
        <mxCell id="IgighBexNKFndrwZGRQ2-81" value="M" style="edgeLabel;html=1;align=center;verticalAlign=middle;resizable=0;points=[];" connectable="0" vertex="1" parent="IgighBexNKFndrwZGRQ2-80">
          <mxGeometry x="0.7739" y="1" relative="1" as="geometry">
            <mxPoint x="-73" y="-9" as="offset" />
          </mxGeometry>
        </mxCell>
        <mxCell id="IgighBexNKFndrwZGRQ2-102" value="role" style="ellipse;whiteSpace=wrap;html=1;fontFamily=Verdana;" vertex="1" parent="1">
          <mxGeometry x="662" y="286" width="90" height="40" as="geometry" />
        </mxCell>
        <mxCell id="IgighBexNKFndrwZGRQ2-104" value="&lt;span style=&quot;text-align: left; text-wrap-mode: nowrap;&quot;&gt;update_at&lt;/span&gt;" style="ellipse;whiteSpace=wrap;html=1;fontFamily=Verdana;" vertex="1" parent="1">
          <mxGeometry x="620" y="888.89" width="106" height="40" as="geometry" />
        </mxCell>
        <mxCell id="IgighBexNKFndrwZGRQ2-116" style="edgeStyle=orthogonalEdgeStyle;rounded=0;orthogonalLoop=1;jettySize=auto;html=1;entryX=0.5;entryY=0;entryDx=0;entryDy=0;endArrow=none;startFill=0;exitX=0.5;exitY=1;exitDx=0;exitDy=0;" edge="1" parent="1" source="IgighBexNKFndrwZGRQ2-148">
          <mxGeometry relative="1" as="geometry">
            <mxPoint x="1545" y="650" as="sourcePoint" />
            <mxPoint x="1545" y="770" as="targetPoint" />
          </mxGeometry>
        </mxCell>
        <mxCell id="IgighBexNKFndrwZGRQ2-117" value="1" style="edgeLabel;html=1;align=center;verticalAlign=middle;resizable=0;points=[];" connectable="0" vertex="1" parent="IgighBexNKFndrwZGRQ2-116">
          <mxGeometry x="0.5333" y="1" relative="1" as="geometry">
            <mxPoint x="-17" y="14" as="offset" />
          </mxGeometry>
        </mxCell>
        <mxCell id="IgighBexNKFndrwZGRQ2-130" value="&lt;span style=&quot;text-align: left; text-wrap-mode: nowrap;&quot;&gt;delete_at&lt;/span&gt;" style="ellipse;whiteSpace=wrap;html=1;fontFamily=Verdana;" vertex="1" parent="1">
          <mxGeometry x="711" y="929" width="106" height="40" as="geometry" />
        </mxCell>
        <mxCell id="IgighBexNKFndrwZGRQ2-131" style="rounded=0;orthogonalLoop=1;jettySize=auto;html=1;entryX=1;entryY=0;entryDx=0;entryDy=0;endArrow=none;startFill=0;exitX=0;exitY=0.5;exitDx=0;exitDy=0;" edge="1" parent="1" source="IgighBexNKFndrwZGRQ2-24" target="IgighBexNKFndrwZGRQ2-130">
          <mxGeometry relative="1" as="geometry">
            <mxPoint x="995" y="834" as="sourcePoint" />
            <mxPoint x="1099" y="929" as="targetPoint" />
          </mxGeometry>
        </mxCell>
        <mxCell id="IgighBexNKFndrwZGRQ2-147" style="edgeStyle=orthogonalEdgeStyle;rounded=0;orthogonalLoop=1;jettySize=auto;html=1;exitX=0.5;exitY=1;exitDx=0;exitDy=0;entryX=0.5;entryY=0;entryDx=0;entryDy=0;endArrow=none;endFill=0;" edge="1" parent="1" source="IgighBexNKFndrwZGRQ2-132" target="IgighBexNKFndrwZGRQ2-148">
          <mxGeometry relative="1" as="geometry">
            <mxPoint x="1544" y="640" as="targetPoint" />
          </mxGeometry>
        </mxCell>
        <mxCell id="IgighBexNKFndrwZGRQ2-153" style="edgeStyle=orthogonalEdgeStyle;rounded=0;orthogonalLoop=1;jettySize=auto;html=1;exitX=0.25;exitY=1;exitDx=0;exitDy=0;entryX=0.5;entryY=0;entryDx=0;entryDy=0;endArrow=none;endFill=0;" edge="1" parent="1" source="IgighBexNKFndrwZGRQ2-132" target="IgighBexNKFndrwZGRQ2-152">
          <mxGeometry relative="1" as="geometry">
            <Array as="points">
              <mxPoint x="1515" y="500" />
              <mxPoint x="1250" y="500" />
            </Array>
          </mxGeometry>
        </mxCell>
        <mxCell id="IgighBexNKFndrwZGRQ2-132" value="Order" style="rounded=0;whiteSpace=wrap;html=1;fontFamily=Verdana;" vertex="1" parent="1">
          <mxGeometry x="1485" y="390" width="120" height="60" as="geometry" />
        </mxCell>
        <mxCell id="IgighBexNKFndrwZGRQ2-133" value="&lt;b&gt;#order_details_id&lt;/b&gt;" style="ellipse;whiteSpace=wrap;html=1;fontFamily=Verdana;" vertex="1" parent="1">
          <mxGeometry x="1030" y="868.89" width="150" height="40" as="geometry" />
        </mxCell>
        <mxCell id="IgighBexNKFndrwZGRQ2-134" value="quantity" style="ellipse;whiteSpace=wrap;html=1;fontFamily=Verdana;" vertex="1" parent="1">
          <mxGeometry x="1160" y="908.89" width="90" height="40" as="geometry" />
        </mxCell>
        <mxCell id="IgighBexNKFndrwZGRQ2-135" value="doneness" style="ellipse;whiteSpace=wrap;html=1;fontFamily=Verdana;" vertex="1" parent="1">
          <mxGeometry x="1270" y="908.89" width="90" height="40" as="geometry" />
        </mxCell>
        <mxCell id="IgighBexNKFndrwZGRQ2-136" value="" style="endArrow=none;html=1;rounded=0;exitX=0.5;exitY=1;exitDx=0;exitDy=0;entryX=0.5;entryY=0;entryDx=0;entryDy=0;fontFamily=Verdana;" edge="1" parent="1" target="IgighBexNKFndrwZGRQ2-133" source="IgighBexNKFndrwZGRQ2-143">
          <mxGeometry width="50" height="50" relative="1" as="geometry">
            <mxPoint x="1240" y="768.89" as="sourcePoint" />
            <mxPoint x="1440" y="758.89" as="targetPoint" />
          </mxGeometry>
        </mxCell>
        <mxCell id="IgighBexNKFndrwZGRQ2-137" value="" style="endArrow=none;html=1;rounded=0;entryX=0.5;entryY=0;entryDx=0;entryDy=0;exitX=0.5;exitY=1;exitDx=0;exitDy=0;fontFamily=Verdana;" edge="1" parent="1" target="IgighBexNKFndrwZGRQ2-134" source="IgighBexNKFndrwZGRQ2-143">
          <mxGeometry width="50" height="50" relative="1" as="geometry">
            <mxPoint x="1240" y="768.89" as="sourcePoint" />
            <mxPoint x="1115" y="738.89" as="targetPoint" />
          </mxGeometry>
        </mxCell>
        <mxCell id="IgighBexNKFndrwZGRQ2-138" value="" style="endArrow=none;html=1;rounded=0;entryX=0.5;entryY=0;entryDx=0;entryDy=0;exitX=0.5;exitY=1;exitDx=0;exitDy=0;fontFamily=Verdana;" edge="1" parent="1" target="IgighBexNKFndrwZGRQ2-135" source="IgighBexNKFndrwZGRQ2-143">
          <mxGeometry width="50" height="50" relative="1" as="geometry">
            <mxPoint x="1240" y="768.89" as="sourcePoint" />
            <mxPoint x="1250" y="688.89" as="targetPoint" />
          </mxGeometry>
        </mxCell>
        <mxCell id="IgighBexNKFndrwZGRQ2-139" value="subtotal" style="ellipse;whiteSpace=wrap;html=1;fontFamily=Verdana;dashed=1;" vertex="1" parent="1">
          <mxGeometry x="1340" y="860" width="90" height="40" as="geometry" />
        </mxCell>
        <mxCell id="IgighBexNKFndrwZGRQ2-140" value="" style="endArrow=none;html=1;rounded=0;entryX=0;entryY=0;entryDx=0;entryDy=0;fontFamily=Verdana;exitX=0.5;exitY=1;exitDx=0;exitDy=0;" edge="1" parent="1" target="IgighBexNKFndrwZGRQ2-139" source="IgighBexNKFndrwZGRQ2-143">
          <mxGeometry width="50" height="50" relative="1" as="geometry">
            <mxPoint x="1250" y="830" as="sourcePoint" />
            <mxPoint x="1410" y="748.89" as="targetPoint" />
          </mxGeometry>
        </mxCell>
        <mxCell id="IgighBexNKFndrwZGRQ2-157" style="edgeStyle=orthogonalEdgeStyle;rounded=0;orthogonalLoop=1;jettySize=auto;html=1;exitX=0;exitY=0.5;exitDx=0;exitDy=0;entryX=1;entryY=0.5;entryDx=0;entryDy=0;endArrow=none;endFill=0;" edge="1" parent="1" source="IgighBexNKFndrwZGRQ2-143" target="IgighBexNKFndrwZGRQ2-156">
          <mxGeometry relative="1" as="geometry" />
        </mxCell>
        <mxCell id="IgighBexNKFndrwZGRQ2-143" value="Order Details" style="rounded=0;whiteSpace=wrap;html=1;fontFamily=Verdana;" vertex="1" parent="1">
          <mxGeometry x="1190" y="768.89" width="120" height="60" as="geometry" />
        </mxCell>
        <mxCell id="IgighBexNKFndrwZGRQ2-144" value="Payments" style="rounded=0;whiteSpace=wrap;html=1;fontFamily=Verdana;" vertex="1" parent="1">
          <mxGeometry x="1485" y="770" width="120" height="60" as="geometry" />
        </mxCell>
        <mxCell id="IgighBexNKFndrwZGRQ2-145" value="&lt;span style=&quot;text-align: left; text-wrap-mode: nowrap;&quot;&gt;transaction_id&lt;/span&gt;" style="ellipse;whiteSpace=wrap;html=1;fontFamily=Verdana;" vertex="1" parent="1">
          <mxGeometry x="1662" y="889" width="112" height="40" as="geometry" />
        </mxCell>
        <mxCell id="IgighBexNKFndrwZGRQ2-146" value="" style="endArrow=none;html=1;rounded=0;entryX=0;entryY=0.5;entryDx=0;entryDy=0;exitX=1;exitY=0.5;exitDx=0;exitDy=0;fontFamily=Verdana;" edge="1" parent="1" source="IgighBexNKFndrwZGRQ2-144" target="IgighBexNKFndrwZGRQ2-145">
          <mxGeometry width="50" height="50" relative="1" as="geometry">
            <mxPoint x="1629" y="810" as="sourcePoint" />
            <mxPoint x="1717" y="836" as="targetPoint" />
          </mxGeometry>
        </mxCell>
        <mxCell id="IgighBexNKFndrwZGRQ2-148" value="&lt;span style=&quot;font-size: 11px; text-wrap-mode: nowrap;&quot;&gt;&lt;b&gt;has&lt;/b&gt;&lt;/span&gt;" style="rhombus;whiteSpace=wrap;html=1;fontFamily=Verdana;" vertex="1" parent="1">
          <mxGeometry x="1505" y="579" width="80" height="80" as="geometry" />
        </mxCell>
        <mxCell id="IgighBexNKFndrwZGRQ2-154" style="edgeStyle=orthogonalEdgeStyle;rounded=0;orthogonalLoop=1;jettySize=auto;html=1;exitX=0.5;exitY=1;exitDx=0;exitDy=0;endArrow=none;endFill=0;" edge="1" parent="1" source="IgighBexNKFndrwZGRQ2-152" target="IgighBexNKFndrwZGRQ2-143">
          <mxGeometry relative="1" as="geometry" />
        </mxCell>
        <mxCell id="IgighBexNKFndrwZGRQ2-152" value="&lt;span style=&quot;font-size: 11px; text-wrap-mode: nowrap;&quot;&gt;&lt;b&gt;contains&lt;/b&gt;&lt;/span&gt;" style="rhombus;whiteSpace=wrap;html=1;fontFamily=Verdana;" vertex="1" parent="1">
          <mxGeometry x="1210" y="579" width="80" height="80" as="geometry" />
        </mxCell>
        <mxCell id="IgighBexNKFndrwZGRQ2-158" style="edgeStyle=orthogonalEdgeStyle;rounded=0;orthogonalLoop=1;jettySize=auto;html=1;exitX=0;exitY=0.5;exitDx=0;exitDy=0;entryX=1;entryY=0.5;entryDx=0;entryDy=0;endArrow=none;endFill=0;" edge="1" parent="1" source="IgighBexNKFndrwZGRQ2-156" target="IgighBexNKFndrwZGRQ2-24">
          <mxGeometry relative="1" as="geometry" />
        </mxCell>
        <mxCell id="IgighBexNKFndrwZGRQ2-156" value="&lt;span style=&quot;font-size: 11px; text-wrap-mode: nowrap;&quot;&gt;&lt;b&gt;part of&lt;/b&gt;&lt;/span&gt;" style="rhombus;whiteSpace=wrap;html=1;fontFamily=Verdana;" vertex="1" parent="1">
          <mxGeometry x="1030" y="758.89" width="80" height="80" as="geometry" />
        </mxCell>
        <mxCell id="IgighBexNKFndrwZGRQ2-161" style="edgeStyle=orthogonalEdgeStyle;rounded=0;orthogonalLoop=1;jettySize=auto;html=1;exitX=0.5;exitY=1;exitDx=0;exitDy=0;" edge="1" parent="1" source="IgighBexNKFndrwZGRQ2-104" target="IgighBexNKFndrwZGRQ2-104">
          <mxGeometry relative="1" as="geometry" />
        </mxCell>
        <mxCell id="IgighBexNKFndrwZGRQ2-163" value="1" style="edgeLabel;html=1;align=center;verticalAlign=middle;resizable=0;points=[];" connectable="0" vertex="1" parent="1">
          <mxGeometry x="1505" y="460" as="geometry" />
        </mxCell>
        <mxCell id="IgighBexNKFndrwZGRQ2-164" value="M" style="edgeLabel;html=1;align=center;verticalAlign=middle;resizable=0;points=[];" connectable="0" vertex="1" parent="1">
          <mxGeometry x="1240" y="759" as="geometry" />
        </mxCell>
        <mxCell id="IgighBexNKFndrwZGRQ2-165" value="1" style="edgeLabel;html=1;align=center;verticalAlign=middle;resizable=0;points=[];" connectable="0" vertex="1" parent="1">
          <mxGeometry x="970" y="788.89" as="geometry" />
        </mxCell>
        <mxCell id="IgighBexNKFndrwZGRQ2-166" value="M" style="edgeLabel;html=1;align=center;verticalAlign=middle;resizable=0;points=[];" connectable="0" vertex="1" parent="1">
          <mxGeometry x="1180" y="788.89" as="geometry" />
        </mxCell>
        <mxCell id="IgighBexNKFndrwZGRQ2-167" value="1" style="edgeLabel;html=1;align=center;verticalAlign=middle;resizable=0;points=[];" connectable="0" vertex="1" parent="1">
          <mxGeometry x="1537" y="460" as="geometry" />
        </mxCell>
      </root>
    </mxGraphModel>
  </diagram>
  <diagram id="POUCFvhsKTM0j7A-QaUA" name="BPMN - Question 2">
    <mxGraphModel dx="3935" dy="2085" grid="1" gridSize="10" guides="1" tooltips="1" connect="1" arrows="1" fold="1" page="1" pageScale="1" pageWidth="850" pageHeight="1100" math="0" shadow="0">
      <root>
        <mxCell id="0" />
        <mxCell id="1" parent="0" />
        <mxCell id="eNNm4vko_xp5jhgznRyM-1" value="" style="group;fontStyle=1;fontFamily=Verdana;" vertex="1" connectable="0" parent="1">
          <mxGeometry x="620" y="180" width="3590" height="1037" as="geometry" />
        </mxCell>
        <mxCell id="eNNm4vko_xp5jhgznRyM-4" value="&lt;font style=&quot;font-size: 14px;&quot;&gt;External Systems&lt;/font&gt;" style="swimlane;html=1;childLayout=stackLayout;resizeParent=1;resizeParentMax=0;horizontal=0;startSize=20;horizontalStack=0;whiteSpace=wrap;fontSize=18;fontFamily=Verdana;fontStyle=1;fillColor=#d5e8d4;strokeColor=#82b366;" vertex="1" parent="eNNm4vko_xp5jhgznRyM-1">
          <mxGeometry y="151" width="3550" height="518.53" as="geometry" />
        </mxCell>
        <mxCell id="eNNm4vko_xp5jhgznRyM-5" value="&lt;font style=&quot;font-size: 14px;&quot;&gt;Bank&lt;/font&gt;" style="swimlane;html=1;startSize=20;horizontal=0;fontSize=18;fontFamily=Verdana;fontStyle=1;fillColor=#e1d5e7;strokeColor=#9673a6;" vertex="1" parent="eNNm4vko_xp5jhgznRyM-4">
          <mxGeometry x="20" width="3530" height="188.53" as="geometry" />
        </mxCell>
        <mxCell id="eNNm4vko_xp5jhgznRyM-269" style="edgeStyle=orthogonalEdgeStyle;rounded=0;orthogonalLoop=1;jettySize=auto;html=1;exitX=1;exitY=0.5;exitDx=0;exitDy=0;exitPerimeter=0;entryX=0.023;entryY=0.568;entryDx=0;entryDy=0;entryPerimeter=0;fontFamily=Verdana;" edge="1" parent="eNNm4vko_xp5jhgznRyM-5" source="eNNm4vko_xp5jhgznRyM-266" target="eNNm4vko_xp5jhgznRyM-270">
          <mxGeometry relative="1" as="geometry">
            <mxPoint x="2530" y="99.25999999999999" as="targetPoint" />
          </mxGeometry>
        </mxCell>
        <mxCell id="eNNm4vko_xp5jhgznRyM-266" value="&lt;b&gt;Memvalidasi Nama Pemilik&lt;/b&gt;" style="points=[[0.25,0,0],[0.5,0,0],[0.75,0,0],[1,0.25,0],[1,0.5,0],[1,0.75,0],[0.75,1,0],[0.5,1,0],[0.25,1,0],[0,0.75,0],[0,0.5,0],[0,0.25,0]];shape=mxgraph.bpmn.task2;whiteSpace=wrap;rectStyle=rounded;size=10;html=1;container=1;expand=0;collapsible=0;taskMarker=receive;fontFamily=Verdana;" vertex="1" parent="eNNm4vko_xp5jhgznRyM-5">
          <mxGeometry x="2350" y="59.26999999999999" width="120" height="80" as="geometry" />
        </mxCell>
        <mxCell id="eNNm4vko_xp5jhgznRyM-270" value="&lt;b&gt;Mengirim Nama Pemilik&lt;/b&gt;" style="points=[[0.25,0,0],[0.5,0,0],[0.75,0,0],[1,0.25,0],[1,0.5,0],[1,0.75,0],[0.75,1,0],[0.5,1,0],[0.25,1,0],[0,0.75,0],[0,0.5,0],[0,0.25,0]];shape=mxgraph.bpmn.task2;whiteSpace=wrap;rectStyle=rounded;size=10;html=1;container=1;expand=0;collapsible=0;taskMarker=send;fontFamily=Verdana;" vertex="1" parent="eNNm4vko_xp5jhgznRyM-5">
          <mxGeometry x="2530" y="54" width="120" height="80" as="geometry" />
        </mxCell>
        <mxCell id="eNNm4vko_xp5jhgznRyM-288" value="&lt;font style=&quot;&quot;&gt;Memproses Transfer Dana&lt;br style=&quot;font-size: 9px;&quot;&gt;&lt;/font&gt;" style="rounded=1;whiteSpace=wrap;html=1;fontFamily=Verdana;fontStyle=1;fontSize=9;" vertex="1" parent="eNNm4vko_xp5jhgznRyM-5">
          <mxGeometry x="2968.97" y="63.999999999999986" width="70" height="60" as="geometry" />
        </mxCell>
        <mxCell id="eNNm4vko_xp5jhgznRyM-41" value="&lt;font style=&quot;font-size: 14px;&quot;&gt;Merchant&lt;/font&gt;" style="swimlane;html=1;startSize=20;horizontal=0;fontSize=18;fontFamily=Verdana;fontStyle=1;fillColor=#ffe6cc;strokeColor=#d79b00;" vertex="1" parent="eNNm4vko_xp5jhgznRyM-4">
          <mxGeometry x="20" y="188.53" width="3530" height="150" as="geometry" />
        </mxCell>
        <mxCell id="eNNm4vko_xp5jhgznRyM-259" value="&lt;font style=&quot;&quot;&gt;Menerima Konfirmasi&lt;br style=&quot;font-size: 9px;&quot;&gt;&lt;/font&gt;" style="rounded=1;whiteSpace=wrap;html=1;fontFamily=Verdana;fontStyle=1;fontSize=9;" vertex="1" parent="eNNm4vko_xp5jhgznRyM-41">
          <mxGeometry x="2155" y="45.00000000000003" width="70" height="60" as="geometry" />
        </mxCell>
        <mxCell id="eNNm4vko_xp5jhgznRyM-71" value="&lt;font style=&quot;font-size: 14px;&quot;&gt;Midtrans&lt;/font&gt;" style="swimlane;html=1;startSize=20;horizontal=0;fontSize=18;fontFamily=Verdana;fontStyle=1;fillColor=#f8cecc;strokeColor=#b85450;" vertex="1" parent="eNNm4vko_xp5jhgznRyM-4">
          <mxGeometry x="20" y="338.53" width="3530" height="180" as="geometry" />
        </mxCell>
        <mxCell id="eNNm4vko_xp5jhgznRyM-220" style="edgeStyle=orthogonalEdgeStyle;rounded=0;orthogonalLoop=1;jettySize=auto;html=1;exitX=1;exitY=0.5;exitDx=0;exitDy=0;fontFamily=Verdana;" edge="1" parent="eNNm4vko_xp5jhgznRyM-71" source="eNNm4vko_xp5jhgznRyM-218" target="eNNm4vko_xp5jhgznRyM-219">
          <mxGeometry relative="1" as="geometry" />
        </mxCell>
        <mxCell id="eNNm4vko_xp5jhgznRyM-218" value="&lt;font style=&quot;&quot;&gt;Memproses Pembayaran&lt;br style=&quot;font-size: 9px;&quot;&gt;&lt;/font&gt;" style="rounded=1;whiteSpace=wrap;html=1;fontFamily=Verdana;fontStyle=1;fontSize=9;" vertex="1" parent="eNNm4vko_xp5jhgznRyM-71">
          <mxGeometry x="1416" y="56" width="70" height="60" as="geometry" />
        </mxCell>
        <mxCell id="eNNm4vko_xp5jhgznRyM-219" value="&lt;b&gt;&amp;nbsp;Mengirim Webhook Notifikasi&lt;/b&gt;" style="points=[[0.25,0,0],[0.5,0,0],[0.75,0,0],[1,0.25,0],[1,0.5,0],[1,0.75,0],[0.75,1,0],[0.5,1,0],[0.25,1,0],[0,0.75,0],[0,0.5,0],[0,0.25,0]];shape=mxgraph.bpmn.task2;whiteSpace=wrap;rectStyle=rounded;size=10;html=1;container=1;expand=0;collapsible=0;taskMarker=receive;fontFamily=Verdana;" vertex="1" parent="eNNm4vko_xp5jhgznRyM-71">
          <mxGeometry x="1560" y="46" width="120" height="80" as="geometry" />
        </mxCell>
        <mxCell id="eNNm4vko_xp5jhgznRyM-126" value="RoketPay System" style="swimlane;horizontal=0;whiteSpace=wrap;html=1;fontFamily=Verdana;fillColor=#fff2cc;strokeColor=#d6b656;" vertex="1" parent="eNNm4vko_xp5jhgznRyM-1">
          <mxGeometry x="-10" y="720" width="3560" height="297" as="geometry" />
        </mxCell>
        <mxCell id="eNNm4vko_xp5jhgznRyM-145" style="edgeStyle=orthogonalEdgeStyle;rounded=0;orthogonalLoop=1;jettySize=auto;html=1;fontFamily=Verdana;" edge="1" parent="eNNm4vko_xp5jhgznRyM-126" source="eNNm4vko_xp5jhgznRyM-139" target="eNNm4vko_xp5jhgznRyM-144">
          <mxGeometry relative="1" as="geometry" />
        </mxCell>
        <mxCell id="eNNm4vko_xp5jhgznRyM-139" value="&lt;font style=&quot;&quot;&gt;Menerima &amp;amp; Memvalidasi Data&lt;br style=&quot;font-size: 9px;&quot;&gt;&lt;/font&gt;" style="rounded=1;whiteSpace=wrap;html=1;fontFamily=Verdana;fontStyle=1;fontSize=9;" vertex="1" parent="eNNm4vko_xp5jhgznRyM-126">
          <mxGeometry x="130" y="195" width="70" height="60" as="geometry" />
        </mxCell>
        <mxCell id="eNNm4vko_xp5jhgznRyM-140" style="edgeStyle=orthogonalEdgeStyle;rounded=0;orthogonalLoop=1;jettySize=auto;html=1;exitX=1;exitY=0.5;exitDx=0;exitDy=0;exitPerimeter=0;entryX=0;entryY=0.5;entryDx=0;entryDy=0;fontFamily=Verdana;" edge="1" parent="eNNm4vko_xp5jhgznRyM-126" source="eNNm4vko_xp5jhgznRyM-144" target="eNNm4vko_xp5jhgznRyM-147">
          <mxGeometry relative="1" as="geometry">
            <mxPoint x="371.03" y="292" as="targetPoint" />
          </mxGeometry>
        </mxCell>
        <mxCell id="eNNm4vko_xp5jhgznRyM-141" value="Tidak" style="edgeLabel;html=1;align=center;verticalAlign=middle;resizable=0;points=[];fontFamily=Verdana;" vertex="1" connectable="0" parent="eNNm4vko_xp5jhgznRyM-140">
          <mxGeometry x="-0.4242" y="1" relative="1" as="geometry">
            <mxPoint x="21" y="18" as="offset" />
          </mxGeometry>
        </mxCell>
        <mxCell id="eNNm4vko_xp5jhgznRyM-142" style="edgeStyle=orthogonalEdgeStyle;rounded=0;orthogonalLoop=1;jettySize=auto;html=1;exitX=0.5;exitY=0;exitDx=0;exitDy=0;exitPerimeter=0;entryX=0;entryY=0.5;entryDx=0;entryDy=0;fontFamily=Verdana;" edge="1" parent="eNNm4vko_xp5jhgznRyM-126" source="eNNm4vko_xp5jhgznRyM-144" target="eNNm4vko_xp5jhgznRyM-146">
          <mxGeometry relative="1" as="geometry">
            <mxPoint x="390" y="181" as="targetPoint" />
            <Array as="points">
              <mxPoint x="258" y="182" />
              <mxPoint x="320" y="182" />
              <mxPoint x="400" y="181" />
            </Array>
          </mxGeometry>
        </mxCell>
        <mxCell id="eNNm4vko_xp5jhgznRyM-143" value="Ya" style="edgeLabel;html=1;align=center;verticalAlign=middle;resizable=0;points=[];fontFamily=Verdana;" vertex="1" connectable="0" parent="eNNm4vko_xp5jhgznRyM-142">
          <mxGeometry x="0.1031" y="2" relative="1" as="geometry">
            <mxPoint as="offset" />
          </mxGeometry>
        </mxCell>
        <mxCell id="eNNm4vko_xp5jhgznRyM-144" value="&lt;font size=&quot;1&quot;&gt;Data Valid?&lt;/font&gt;" style="points=[[0.25,0.25,0],[0.5,0,0],[0.75,0.25,0],[1,0.5,0],[0.75,0.75,0],[0.5,1,0],[0.25,0.75,0],[0,0.5,0]];shape=mxgraph.bpmn.gateway2;html=1;verticalLabelPosition=bottom;labelBackgroundColor=#ffffff;verticalAlign=top;align=center;perimeter=rhombusPerimeter;outlineConnect=0;outline=none;symbol=none;gwType=exclusive;fontFamily=Verdana;fontStyle=1" vertex="1" parent="eNNm4vko_xp5jhgznRyM-126">
          <mxGeometry x="241.02999999999997" y="208.8499999999999" width="33.33" height="33.33" as="geometry" />
        </mxCell>
        <mxCell id="eNNm4vko_xp5jhgznRyM-146" value="&lt;font style=&quot;&quot;&gt;Membuat Akun &amp;amp; Mengirim OTP&lt;br style=&quot;font-size: 9px;&quot;&gt;&lt;/font&gt;" style="rounded=1;whiteSpace=wrap;html=1;fontFamily=Verdana;fontStyle=1;fontSize=9;" vertex="1" parent="eNNm4vko_xp5jhgznRyM-126">
          <mxGeometry x="400" y="151.85" width="70" height="60" as="geometry" />
        </mxCell>
        <mxCell id="eNNm4vko_xp5jhgznRyM-147" value="&lt;font style=&quot;&quot;&gt;Menampilkan Pesan Error&lt;br style=&quot;font-size: 9px;&quot;&gt;&lt;/font&gt;" style="rounded=1;whiteSpace=wrap;html=1;fontFamily=Verdana;fontStyle=1;fontSize=9;" vertex="1" parent="eNNm4vko_xp5jhgznRyM-126">
          <mxGeometry x="400" y="225" width="70" height="60" as="geometry" />
        </mxCell>
        <mxCell id="eNNm4vko_xp5jhgznRyM-152" value="&lt;font style=&quot;&quot;&gt;Memverifikasi OTP&lt;br style=&quot;font-size: 9px;&quot;&gt;&lt;/font&gt;" style="rounded=1;whiteSpace=wrap;html=1;fontFamily=Verdana;fontStyle=1;fontSize=9;" vertex="1" parent="eNNm4vko_xp5jhgznRyM-126">
          <mxGeometry x="685" y="188.99999999999991" width="70" height="60" as="geometry" />
        </mxCell>
        <mxCell id="eNNm4vko_xp5jhgznRyM-154" style="edgeStyle=orthogonalEdgeStyle;rounded=0;orthogonalLoop=1;jettySize=auto;html=1;exitX=1;exitY=0.5;exitDx=0;exitDy=0;exitPerimeter=0;entryX=0;entryY=0.5;entryDx=0;entryDy=0;fontFamily=Verdana;" edge="1" parent="eNNm4vko_xp5jhgznRyM-126" source="eNNm4vko_xp5jhgznRyM-158" target="eNNm4vko_xp5jhgznRyM-160">
          <mxGeometry relative="1" as="geometry">
            <mxPoint x="945" y="285.1500000000001" as="targetPoint" />
          </mxGeometry>
        </mxCell>
        <mxCell id="eNNm4vko_xp5jhgznRyM-155" value="Tidak" style="edgeLabel;html=1;align=center;verticalAlign=middle;resizable=0;points=[];fontFamily=Verdana;" vertex="1" connectable="0" parent="eNNm4vko_xp5jhgznRyM-154">
          <mxGeometry x="-0.4242" y="1" relative="1" as="geometry">
            <mxPoint x="6" y="18" as="offset" />
          </mxGeometry>
        </mxCell>
        <mxCell id="eNNm4vko_xp5jhgznRyM-156" style="edgeStyle=orthogonalEdgeStyle;rounded=0;orthogonalLoop=1;jettySize=auto;html=1;exitX=0.5;exitY=0;exitDx=0;exitDy=0;exitPerimeter=0;entryX=0;entryY=0.5;entryDx=0;entryDy=0;fontFamily=Verdana;" edge="1" parent="eNNm4vko_xp5jhgznRyM-126" source="eNNm4vko_xp5jhgznRyM-158" target="eNNm4vko_xp5jhgznRyM-159">
          <mxGeometry relative="1" as="geometry">
            <mxPoint x="963.97" y="174.1500000000001" as="targetPoint" />
            <Array as="points">
              <mxPoint x="831.97" y="175.1500000000001" />
              <mxPoint x="893.97" y="175.1500000000001" />
              <mxPoint x="973.97" y="174.1500000000001" />
            </Array>
          </mxGeometry>
        </mxCell>
        <mxCell id="eNNm4vko_xp5jhgznRyM-157" value="Ya" style="edgeLabel;html=1;align=center;verticalAlign=middle;resizable=0;points=[];fontFamily=Verdana;" vertex="1" connectable="0" parent="eNNm4vko_xp5jhgznRyM-156">
          <mxGeometry x="0.1031" y="2" relative="1" as="geometry">
            <mxPoint as="offset" />
          </mxGeometry>
        </mxCell>
        <mxCell id="eNNm4vko_xp5jhgznRyM-158" value="&lt;font size=&quot;1&quot;&gt;OTP Benar?&lt;/font&gt;" style="points=[[0.25,0.25,0],[0.5,0,0],[0.75,0.25,0],[1,0.5,0],[0.75,0.75,0],[0.5,1,0],[0.25,0.75,0],[0,0.5,0]];shape=mxgraph.bpmn.gateway2;html=1;verticalLabelPosition=bottom;labelBackgroundColor=#ffffff;verticalAlign=top;align=center;perimeter=rhombusPerimeter;outlineConnect=0;outline=none;symbol=none;gwType=exclusive;fontFamily=Verdana;fontStyle=1" vertex="1" parent="eNNm4vko_xp5jhgznRyM-126">
          <mxGeometry x="815" y="202" width="33.33" height="33.33" as="geometry" />
        </mxCell>
        <mxCell id="eNNm4vko_xp5jhgznRyM-164" style="edgeStyle=orthogonalEdgeStyle;rounded=0;orthogonalLoop=1;jettySize=auto;html=1;exitX=1;exitY=0.5;exitDx=0;exitDy=0;fontFamily=Verdana;" edge="1" parent="eNNm4vko_xp5jhgznRyM-126" source="eNNm4vko_xp5jhgznRyM-159" target="eNNm4vko_xp5jhgznRyM-163">
          <mxGeometry relative="1" as="geometry" />
        </mxCell>
        <mxCell id="eNNm4vko_xp5jhgznRyM-159" value="&lt;font style=&quot;&quot;&gt;Membuat Akun &amp;amp; Mengirim OTP&lt;br style=&quot;font-size: 9px;&quot;&gt;&lt;/font&gt;" style="rounded=1;whiteSpace=wrap;html=1;fontFamily=Verdana;fontStyle=1;fontSize=9;" vertex="1" parent="eNNm4vko_xp5jhgznRyM-126">
          <mxGeometry x="918.97" y="145" width="70" height="60" as="geometry" />
        </mxCell>
        <mxCell id="eNNm4vko_xp5jhgznRyM-160" value="&lt;font style=&quot;&quot;&gt;Menampilkan Error OTP&lt;br style=&quot;font-size: 9px;&quot;&gt;&lt;/font&gt;" style="rounded=1;whiteSpace=wrap;html=1;fontFamily=Verdana;fontStyle=1;fontSize=9;" vertex="1" parent="eNNm4vko_xp5jhgznRyM-126">
          <mxGeometry x="918.97" y="218.1500000000001" width="70" height="60" as="geometry" />
        </mxCell>
        <mxCell id="eNNm4vko_xp5jhgznRyM-161" style="edgeStyle=orthogonalEdgeStyle;rounded=0;orthogonalLoop=1;jettySize=auto;html=1;exitX=1;exitY=0.5;exitDx=0;exitDy=0;entryX=0;entryY=0.5;entryDx=0;entryDy=0;entryPerimeter=0;fontFamily=Verdana;" edge="1" parent="eNNm4vko_xp5jhgznRyM-126" source="eNNm4vko_xp5jhgznRyM-152" target="eNNm4vko_xp5jhgznRyM-158">
          <mxGeometry relative="1" as="geometry" />
        </mxCell>
        <mxCell id="eNNm4vko_xp5jhgznRyM-163" value="&lt;b&gt;Akun Berhasil&amp;nbsp;&lt;/b&gt;&lt;div&gt;&lt;b&gt;Dibuat&lt;/b&gt;&lt;/div&gt;" style="points=[[0.145,0.145,0],[0.5,0,0],[0.855,0.145,0],[1,0.5,0],[0.855,0.855,0],[0.5,1,0],[0.145,0.855,0],[0,0.5,0]];shape=mxgraph.bpmn.event;html=1;verticalLabelPosition=bottom;labelBackgroundColor=#ffffff;verticalAlign=top;align=center;perimeter=ellipsePerimeter;outlineConnect=0;aspect=fixed;outline=throwing;symbol=general;fontFamily=Verdana;" vertex="1" parent="eNNm4vko_xp5jhgznRyM-126">
          <mxGeometry x="1030" y="152.85" width="43.15" height="43.15" as="geometry" />
        </mxCell>
        <mxCell id="eNNm4vko_xp5jhgznRyM-167" value="&lt;font style=&quot;&quot;&gt;Memverifikasi Kredensial&lt;br style=&quot;font-size: 9px;&quot;&gt;&lt;/font&gt;" style="rounded=1;whiteSpace=wrap;html=1;fontFamily=Verdana;fontStyle=1;fontSize=9;" vertex="1" parent="eNNm4vko_xp5jhgznRyM-126">
          <mxGeometry x="600" y="63" width="70" height="60" as="geometry" />
        </mxCell>
        <mxCell id="eNNm4vko_xp5jhgznRyM-179" style="edgeStyle=orthogonalEdgeStyle;rounded=0;orthogonalLoop=1;jettySize=auto;html=1;exitX=1;exitY=0.5;exitDx=0;exitDy=0;exitPerimeter=0;entryX=0;entryY=0.5;entryDx=0;entryDy=0;fontFamily=Verdana;" edge="1" parent="eNNm4vko_xp5jhgznRyM-126" source="eNNm4vko_xp5jhgznRyM-183" target="eNNm4vko_xp5jhgznRyM-185">
          <mxGeometry relative="1" as="geometry">
            <mxPoint x="830" y="159.85000000000014" as="targetPoint" />
          </mxGeometry>
        </mxCell>
        <mxCell id="eNNm4vko_xp5jhgznRyM-180" value="Tidak" style="edgeLabel;html=1;align=center;verticalAlign=middle;resizable=0;points=[];fontFamily=Verdana;" vertex="1" connectable="0" parent="eNNm4vko_xp5jhgznRyM-179">
          <mxGeometry x="-0.4242" y="1" relative="1" as="geometry">
            <mxPoint x="19" y="1" as="offset" />
          </mxGeometry>
        </mxCell>
        <mxCell id="eNNm4vko_xp5jhgznRyM-183" value="&lt;font size=&quot;1&quot;&gt;Login&amp;nbsp;&lt;/font&gt;&lt;div&gt;&lt;font size=&quot;1&quot;&gt;Berhasil?&lt;/font&gt;&lt;/div&gt;" style="points=[[0.25,0.25,0],[0.5,0,0],[0.75,0.25,0],[1,0.5,0],[0.75,0.75,0],[0.5,1,0],[0.25,0.75,0],[0,0.5,0]];shape=mxgraph.bpmn.gateway2;html=1;verticalLabelPosition=bottom;labelBackgroundColor=#ffffff;verticalAlign=top;align=center;perimeter=rhombusPerimeter;outlineConnect=0;outline=none;symbol=none;gwType=exclusive;fontFamily=Verdana;fontStyle=1" vertex="1" parent="eNNm4vko_xp5jhgznRyM-126">
          <mxGeometry x="700" y="76.70000000000005" width="33.33" height="33.33" as="geometry" />
        </mxCell>
        <mxCell id="eNNm4vko_xp5jhgznRyM-185" value="&lt;font style=&quot;&quot;&gt;Menampilkan Error Login&lt;br style=&quot;font-size: 9px;&quot;&gt;&lt;/font&gt;" style="rounded=1;whiteSpace=wrap;html=1;fontFamily=Verdana;fontStyle=1;fontSize=9;" vertex="1" parent="eNNm4vko_xp5jhgznRyM-126">
          <mxGeometry x="830" y="63.00000000000013" width="70" height="60" as="geometry" />
        </mxCell>
        <mxCell id="eNNm4vko_xp5jhgznRyM-186" style="edgeStyle=orthogonalEdgeStyle;rounded=0;orthogonalLoop=1;jettySize=auto;html=1;entryX=0;entryY=0.5;entryDx=0;entryDy=0;entryPerimeter=0;fontFamily=Verdana;" edge="1" parent="eNNm4vko_xp5jhgznRyM-126" source="eNNm4vko_xp5jhgznRyM-167" target="eNNm4vko_xp5jhgznRyM-183">
          <mxGeometry relative="1" as="geometry" />
        </mxCell>
        <mxCell id="eNNm4vko_xp5jhgznRyM-193" value="&lt;font style=&quot;&quot;&gt;Mengirim Link Reset Password&lt;br style=&quot;font-size: 9px;&quot;&gt;&lt;/font&gt;" style="rounded=1;whiteSpace=wrap;html=1;fontFamily=Verdana;fontStyle=1;fontSize=9;" vertex="1" parent="eNNm4vko_xp5jhgznRyM-126">
          <mxGeometry x="1120" y="151.85000000000005" width="70" height="60" as="geometry" />
        </mxCell>
        <mxCell id="eNNm4vko_xp5jhgznRyM-203" style="edgeStyle=orthogonalEdgeStyle;rounded=0;orthogonalLoop=1;jettySize=auto;html=1;exitX=1;exitY=0.5;exitDx=0;exitDy=0;fontFamily=Verdana;" edge="1" parent="eNNm4vko_xp5jhgznRyM-126" source="eNNm4vko_xp5jhgznRyM-200" target="eNNm4vko_xp5jhgznRyM-202">
          <mxGeometry relative="1" as="geometry" />
        </mxCell>
        <mxCell id="eNNm4vko_xp5jhgznRyM-200" value="&lt;font style=&quot;&quot;&gt;Mengupdate Password di Database&lt;br style=&quot;font-size: 9px;&quot;&gt;&lt;/font&gt;" style="rounded=1;whiteSpace=wrap;html=1;fontFamily=Verdana;fontStyle=1;fontSize=9;" vertex="1" parent="eNNm4vko_xp5jhgznRyM-126">
          <mxGeometry x="1263" y="151.85" width="70" height="60" as="geometry" />
        </mxCell>
        <mxCell id="eNNm4vko_xp5jhgznRyM-202" value="&lt;b&gt;Password&amp;nbsp;&lt;/b&gt;&lt;div&gt;&lt;b&gt;Berhasil Diubah&lt;/b&gt;&lt;/div&gt;" style="points=[[0.145,0.145,0],[0.5,0,0],[0.855,0.145,0],[1,0.5,0],[0.855,0.855,0],[0.5,1,0],[0.145,0.855,0],[0,0.5,0]];shape=mxgraph.bpmn.event;html=1;verticalLabelPosition=bottom;labelBackgroundColor=#ffffff;verticalAlign=top;align=center;perimeter=ellipsePerimeter;outlineConnect=0;aspect=fixed;outline=throwing;symbol=general;fontFamily=Verdana;" vertex="1" parent="eNNm4vko_xp5jhgznRyM-126">
          <mxGeometry x="1380" y="160" width="43.15" height="43.15" as="geometry" />
        </mxCell>
        <mxCell id="eNNm4vko_xp5jhgznRyM-216" value="&lt;font style=&quot;&quot;&gt;Membuat Transaksi &amp;amp; Redirect Eksternal&lt;br style=&quot;font-size: 9px;&quot;&gt;&lt;/font&gt;" style="rounded=1;whiteSpace=wrap;html=1;fontFamily=Verdana;fontStyle=1;fontSize=9;" vertex="1" parent="eNNm4vko_xp5jhgznRyM-126">
          <mxGeometry x="1445" y="63.370000000000005" width="70" height="60" as="geometry" />
        </mxCell>
        <mxCell id="eNNm4vko_xp5jhgznRyM-231" style="edgeStyle=orthogonalEdgeStyle;rounded=0;orthogonalLoop=1;jettySize=auto;html=1;exitX=1;exitY=0.5;exitDx=0;exitDy=0;fontFamily=Verdana;" edge="1" parent="eNNm4vko_xp5jhgznRyM-126" source="eNNm4vko_xp5jhgznRyM-223" target="eNNm4vko_xp5jhgznRyM-230">
          <mxGeometry relative="1" as="geometry" />
        </mxCell>
        <mxCell id="eNNm4vko_xp5jhgznRyM-223" value="&lt;font style=&quot;&quot;&gt;Menerima &amp;amp; Memverifikasi Notifikasi&lt;br style=&quot;font-size: 9px;&quot;&gt;&lt;/font&gt;" style="rounded=1;whiteSpace=wrap;html=1;fontFamily=Verdana;fontStyle=1;fontSize=9;" vertex="1" parent="eNNm4vko_xp5jhgznRyM-126">
          <mxGeometry x="1615" y="15.369999999999997" width="70" height="60" as="geometry" />
        </mxCell>
        <mxCell id="eNNm4vko_xp5jhgznRyM-233" style="edgeStyle=orthogonalEdgeStyle;rounded=0;orthogonalLoop=1;jettySize=auto;html=1;exitX=1;exitY=0.5;exitDx=0;exitDy=0;fontFamily=Verdana;" edge="1" parent="eNNm4vko_xp5jhgznRyM-126" source="eNNm4vko_xp5jhgznRyM-230" target="eNNm4vko_xp5jhgznRyM-232">
          <mxGeometry relative="1" as="geometry" />
        </mxCell>
        <mxCell id="eNNm4vko_xp5jhgznRyM-230" value="&lt;font style=&quot;&quot;&gt;Menambah Saldo Wallet Pengguna&lt;br style=&quot;font-size: 9px;&quot;&gt;&lt;/font&gt;" style="rounded=1;whiteSpace=wrap;html=1;fontFamily=Verdana;fontStyle=1;fontSize=9;" vertex="1" parent="eNNm4vko_xp5jhgznRyM-126">
          <mxGeometry x="1720" y="15" width="70" height="60" as="geometry" />
        </mxCell>
        <mxCell id="eNNm4vko_xp5jhgznRyM-232" value="&lt;font style=&quot;&quot;&gt;Mengirim Notifikasi Sukses ke User&lt;br style=&quot;font-size: 9px;&quot;&gt;&lt;/font&gt;" style="rounded=1;whiteSpace=wrap;html=1;fontFamily=Verdana;fontStyle=1;fontSize=9;" vertex="1" parent="eNNm4vko_xp5jhgznRyM-126">
          <mxGeometry x="1830" y="15.370000000000005" width="70" height="60" as="geometry" />
        </mxCell>
        <mxCell id="eNNm4vko_xp5jhgznRyM-242" style="edgeStyle=orthogonalEdgeStyle;rounded=0;orthogonalLoop=1;jettySize=auto;html=1;exitX=1;exitY=0.5;exitDx=0;exitDy=0;entryX=0;entryY=0.5;entryDx=0;entryDy=0;fontFamily=Verdana;" edge="1" parent="eNNm4vko_xp5jhgznRyM-126" source="eNNm4vko_xp5jhgznRyM-236" target="eNNm4vko_xp5jhgznRyM-239">
          <mxGeometry relative="1" as="geometry" />
        </mxCell>
        <mxCell id="eNNm4vko_xp5jhgznRyM-236" value="&lt;font style=&quot;&quot;&gt;Decode QR&lt;br style=&quot;font-size: 9px;&quot;&gt;&lt;/font&gt;" style="rounded=1;whiteSpace=wrap;html=1;fontFamily=Verdana;fontStyle=1;fontSize=9;" vertex="1" parent="eNNm4vko_xp5jhgznRyM-126">
          <mxGeometry x="1520" y="152.85000000000008" width="70" height="60" as="geometry" />
        </mxCell>
        <mxCell id="eNNm4vko_xp5jhgznRyM-239" value="&lt;font style=&quot;&quot;&gt;Menampilkan Detail Pembayaran&lt;br style=&quot;font-size: 9px;&quot;&gt;&lt;/font&gt;" style="rounded=1;whiteSpace=wrap;html=1;fontFamily=Verdana;fontStyle=1;fontSize=9;" vertex="1" parent="eNNm4vko_xp5jhgznRyM-126">
          <mxGeometry x="1646" y="152.8499999999999" width="70" height="60" as="geometry" />
        </mxCell>
        <mxCell id="eNNm4vko_xp5jhgznRyM-244" value="&lt;font style=&quot;&quot;&gt;Memverifikasi PIN &amp;amp; Saldo&lt;br style=&quot;font-size: 9px;&quot;&gt;&lt;/font&gt;" style="rounded=1;whiteSpace=wrap;html=1;fontFamily=Verdana;fontStyle=1;fontSize=9;" vertex="1" parent="eNNm4vko_xp5jhgznRyM-126">
          <mxGeometry x="1760" y="152.85000000000008" width="70" height="60" as="geometry" />
        </mxCell>
        <mxCell id="eNNm4vko_xp5jhgznRyM-247" style="edgeStyle=orthogonalEdgeStyle;rounded=0;orthogonalLoop=1;jettySize=auto;html=1;exitX=1;exitY=0.5;exitDx=0;exitDy=0;exitPerimeter=0;entryX=0;entryY=0.5;entryDx=0;entryDy=0;fontFamily=Verdana;" edge="1" parent="eNNm4vko_xp5jhgznRyM-126" source="eNNm4vko_xp5jhgznRyM-251" target="eNNm4vko_xp5jhgznRyM-253">
          <mxGeometry relative="1" as="geometry">
            <mxPoint x="2000" y="249.1500000000001" as="targetPoint" />
          </mxGeometry>
        </mxCell>
        <mxCell id="eNNm4vko_xp5jhgznRyM-248" value="Tidak" style="edgeLabel;html=1;align=center;verticalAlign=middle;resizable=0;points=[];fontFamily=Verdana;" vertex="1" connectable="0" parent="eNNm4vko_xp5jhgznRyM-247">
          <mxGeometry x="-0.4242" y="1" relative="1" as="geometry">
            <mxPoint x="21" y="18" as="offset" />
          </mxGeometry>
        </mxCell>
        <mxCell id="eNNm4vko_xp5jhgznRyM-249" style="edgeStyle=orthogonalEdgeStyle;rounded=0;orthogonalLoop=1;jettySize=auto;html=1;exitX=0.5;exitY=0;exitDx=0;exitDy=0;exitPerimeter=0;entryX=0;entryY=0.5;entryDx=0;entryDy=0;fontFamily=Verdana;" edge="1" parent="eNNm4vko_xp5jhgznRyM-126" source="eNNm4vko_xp5jhgznRyM-251" target="eNNm4vko_xp5jhgznRyM-252">
          <mxGeometry relative="1" as="geometry">
            <mxPoint x="2018.9700000000003" y="138.1500000000001" as="targetPoint" />
            <Array as="points">
              <mxPoint x="1886.9700000000003" y="139.1500000000001" />
              <mxPoint x="1948.9700000000003" y="139.1500000000001" />
              <mxPoint x="2028.9700000000003" y="138.1500000000001" />
            </Array>
          </mxGeometry>
        </mxCell>
        <mxCell id="eNNm4vko_xp5jhgznRyM-250" value="Ya" style="edgeLabel;html=1;align=center;verticalAlign=middle;resizable=0;points=[];fontFamily=Verdana;" vertex="1" connectable="0" parent="eNNm4vko_xp5jhgznRyM-249">
          <mxGeometry x="0.1031" y="2" relative="1" as="geometry">
            <mxPoint as="offset" />
          </mxGeometry>
        </mxCell>
        <mxCell id="eNNm4vko_xp5jhgznRyM-251" value="&lt;font size=&quot;1&quot;&gt;Verifikasi&amp;nbsp;&lt;/font&gt;&lt;div&gt;&lt;font size=&quot;1&quot;&gt;Berhasil?&lt;/font&gt;&lt;/div&gt;" style="points=[[0.25,0.25,0],[0.5,0,0],[0.75,0.25,0],[1,0.5,0],[0.75,0.75,0],[0.5,1,0],[0.25,0.75,0],[0,0.5,0]];shape=mxgraph.bpmn.gateway2;html=1;verticalLabelPosition=bottom;labelBackgroundColor=#ffffff;verticalAlign=top;align=center;perimeter=rhombusPerimeter;outlineConnect=0;outline=none;symbol=none;gwType=exclusive;fontFamily=Verdana;fontStyle=1" vertex="1" parent="eNNm4vko_xp5jhgznRyM-126">
          <mxGeometry x="1870" y="166" width="33.33" height="33.33" as="geometry" />
        </mxCell>
        <mxCell id="eNNm4vko_xp5jhgznRyM-252" value="&lt;font style=&quot;&quot;&gt;Memotong Saldo &amp;amp; Mencatat Transaksi&lt;br style=&quot;font-size: 9px;&quot;&gt;&lt;/font&gt;" style="rounded=1;whiteSpace=wrap;html=1;fontFamily=Verdana;fontStyle=1;fontSize=9;" vertex="1" parent="eNNm4vko_xp5jhgznRyM-126">
          <mxGeometry x="2028.9700000000003" y="109" width="70" height="60" as="geometry" />
        </mxCell>
        <mxCell id="eNNm4vko_xp5jhgznRyM-253" value="&lt;font style=&quot;&quot;&gt;Menampilkan Pesan Error&lt;br style=&quot;font-size: 9px;&quot;&gt;&lt;/font&gt;" style="rounded=1;whiteSpace=wrap;html=1;fontFamily=Verdana;fontStyle=1;fontSize=9;" vertex="1" parent="eNNm4vko_xp5jhgznRyM-126">
          <mxGeometry x="2028.97" y="182.15" width="71.03" height="61.85" as="geometry" />
        </mxCell>
        <mxCell id="eNNm4vko_xp5jhgznRyM-254" style="edgeStyle=orthogonalEdgeStyle;rounded=0;orthogonalLoop=1;jettySize=auto;html=1;exitX=1;exitY=0.5;exitDx=0;exitDy=0;entryX=0;entryY=0.5;entryDx=0;entryDy=0;entryPerimeter=0;fontFamily=Verdana;" edge="1" parent="eNNm4vko_xp5jhgznRyM-126" source="eNNm4vko_xp5jhgznRyM-244" target="eNNm4vko_xp5jhgznRyM-251">
          <mxGeometry relative="1" as="geometry" />
        </mxCell>
        <mxCell id="eNNm4vko_xp5jhgznRyM-258" style="edgeStyle=orthogonalEdgeStyle;rounded=0;orthogonalLoop=1;jettySize=auto;html=1;exitX=1;exitY=0.5;exitDx=0;exitDy=0;exitPerimeter=0;fontFamily=Verdana;" edge="1" parent="eNNm4vko_xp5jhgznRyM-126" source="eNNm4vko_xp5jhgznRyM-255" target="eNNm4vko_xp5jhgznRyM-257">
          <mxGeometry relative="1" as="geometry" />
        </mxCell>
        <mxCell id="eNNm4vko_xp5jhgznRyM-255" value="&lt;b&gt;Mengirim Konfirmasi ke Sistem Merchant&lt;/b&gt;" style="points=[[0.25,0,0],[0.5,0,0],[0.75,0,0],[1,0.25,0],[1,0.5,0],[1,0.75,0],[0.75,1,0],[0.5,1,0],[0.25,1,0],[0,0.75,0],[0,0.5,0],[0,0.25,0]];shape=mxgraph.bpmn.task2;whiteSpace=wrap;rectStyle=rounded;size=10;html=1;container=1;expand=0;collapsible=0;taskMarker=send;fontFamily=Verdana;" vertex="1" parent="eNNm4vko_xp5jhgznRyM-126">
          <mxGeometry x="2160" y="99" width="120" height="80" as="geometry" />
        </mxCell>
        <mxCell id="eNNm4vko_xp5jhgznRyM-256" style="edgeStyle=orthogonalEdgeStyle;rounded=0;orthogonalLoop=1;jettySize=auto;html=1;exitX=1;exitY=0.5;exitDx=0;exitDy=0;entryX=0;entryY=0.5;entryDx=0;entryDy=0;entryPerimeter=0;fontFamily=Verdana;" edge="1" parent="eNNm4vko_xp5jhgznRyM-126" source="eNNm4vko_xp5jhgznRyM-252" target="eNNm4vko_xp5jhgznRyM-255">
          <mxGeometry relative="1" as="geometry" />
        </mxCell>
        <mxCell id="eNNm4vko_xp5jhgznRyM-257" value="&lt;font style=&quot;&quot;&gt;Mengirim Notifikasi Sukses&lt;br style=&quot;font-size: 9px;&quot;&gt;&lt;/font&gt;" style="rounded=1;whiteSpace=wrap;html=1;fontFamily=Verdana;fontStyle=1;fontSize=9;" vertex="1" parent="eNNm4vko_xp5jhgznRyM-126">
          <mxGeometry x="2340" y="109" width="70" height="60" as="geometry" />
        </mxCell>
        <mxCell id="eNNm4vko_xp5jhgznRyM-264" value="&lt;b&gt;Melakukan Inquiry Validasi Rekening&lt;/b&gt;" style="points=[[0.25,0,0],[0.5,0,0],[0.75,0,0],[1,0.25,0],[1,0.5,0],[1,0.75,0],[0.75,1,0],[0.5,1,0],[0.25,1,0],[0,0.75,0],[0,0.5,0],[0,0.25,0]];shape=mxgraph.bpmn.task2;whiteSpace=wrap;rectStyle=rounded;size=10;html=1;container=1;expand=0;collapsible=0;taskMarker=send;fontFamily=Verdana;" vertex="1" parent="eNNm4vko_xp5jhgznRyM-126">
          <mxGeometry x="2160" y="197" width="120" height="80" as="geometry" />
        </mxCell>
        <mxCell id="eNNm4vko_xp5jhgznRyM-272" value="&lt;font style=&quot;&quot;&gt;Menerima &amp;amp; Menampilkan Nama Pemilik&lt;br style=&quot;font-size: 9px;&quot;&gt;&lt;/font&gt;" style="rounded=1;whiteSpace=wrap;html=1;fontFamily=Verdana;fontStyle=1;fontSize=9;" vertex="1" parent="eNNm4vko_xp5jhgznRyM-126">
          <mxGeometry x="2585" y="183.99999999999991" width="70" height="60" as="geometry" />
        </mxCell>
        <mxCell id="eNNm4vko_xp5jhgznRyM-278" value="&lt;font style=&quot;&quot;&gt;Memverifikasi PIN &amp;amp; Saldo&lt;br style=&quot;font-size: 9px;&quot;&gt;&lt;/font&gt;" style="rounded=1;whiteSpace=wrap;html=1;fontFamily=Verdana;fontStyle=1;fontSize=9;" vertex="1" parent="eNNm4vko_xp5jhgznRyM-126">
          <mxGeometry x="2712.5" y="179.00000000000009" width="70" height="60" as="geometry" />
        </mxCell>
        <mxCell id="eNNm4vko_xp5jhgznRyM-280" style="edgeStyle=orthogonalEdgeStyle;rounded=0;orthogonalLoop=1;jettySize=auto;html=1;exitX=1;exitY=0.5;exitDx=0;exitDy=0;exitPerimeter=0;entryX=0;entryY=0.5;entryDx=0;entryDy=0;fontFamily=Verdana;" edge="1" parent="eNNm4vko_xp5jhgznRyM-126" source="eNNm4vko_xp5jhgznRyM-284" target="eNNm4vko_xp5jhgznRyM-286">
          <mxGeometry relative="1" as="geometry">
            <mxPoint x="2970" y="270.1500000000001" as="targetPoint" />
          </mxGeometry>
        </mxCell>
        <mxCell id="eNNm4vko_xp5jhgznRyM-281" value="Tidak" style="edgeLabel;html=1;align=center;verticalAlign=middle;resizable=0;points=[];fontFamily=Verdana;" vertex="1" connectable="0" parent="eNNm4vko_xp5jhgznRyM-280">
          <mxGeometry x="-0.4242" y="1" relative="1" as="geometry">
            <mxPoint x="21" y="18" as="offset" />
          </mxGeometry>
        </mxCell>
        <mxCell id="eNNm4vko_xp5jhgznRyM-282" style="edgeStyle=orthogonalEdgeStyle;rounded=0;orthogonalLoop=1;jettySize=auto;html=1;exitX=0.5;exitY=0;exitDx=0;exitDy=0;exitPerimeter=0;entryX=0;entryY=0.5;entryDx=0;entryDy=0;fontFamily=Verdana;" edge="1" parent="eNNm4vko_xp5jhgznRyM-126" source="eNNm4vko_xp5jhgznRyM-284" target="eNNm4vko_xp5jhgznRyM-285">
          <mxGeometry relative="1" as="geometry">
            <mxPoint x="2988.9700000000003" y="159.1500000000001" as="targetPoint" />
            <Array as="points">
              <mxPoint x="2856.9700000000003" y="160.1500000000001" />
              <mxPoint x="2918.9700000000003" y="160.1500000000001" />
              <mxPoint x="2998.9700000000003" y="159.1500000000001" />
            </Array>
          </mxGeometry>
        </mxCell>
        <mxCell id="eNNm4vko_xp5jhgznRyM-283" value="Ya" style="edgeLabel;html=1;align=center;verticalAlign=middle;resizable=0;points=[];fontFamily=Verdana;" vertex="1" connectable="0" parent="eNNm4vko_xp5jhgznRyM-282">
          <mxGeometry x="0.1031" y="2" relative="1" as="geometry">
            <mxPoint as="offset" />
          </mxGeometry>
        </mxCell>
        <mxCell id="eNNm4vko_xp5jhgznRyM-284" value="&lt;font size=&quot;1&quot;&gt;Verifikasi&amp;nbsp;&lt;/font&gt;&lt;div&gt;&lt;font size=&quot;1&quot;&gt;Berhasil?&lt;/font&gt;&lt;/div&gt;" style="points=[[0.25,0.25,0],[0.5,0,0],[0.75,0.25,0],[1,0.5,0],[0.75,0.75,0],[0.5,1,0],[0.25,0.75,0],[0,0.5,0]];shape=mxgraph.bpmn.gateway2;html=1;verticalLabelPosition=bottom;labelBackgroundColor=#ffffff;verticalAlign=top;align=center;perimeter=rhombusPerimeter;outlineConnect=0;outline=none;symbol=none;gwType=exclusive;fontFamily=Verdana;fontStyle=1" vertex="1" parent="eNNm4vko_xp5jhgznRyM-126">
          <mxGeometry x="2840" y="187" width="33.33" height="33.33" as="geometry" />
        </mxCell>
        <mxCell id="eNNm4vko_xp5jhgznRyM-290" style="edgeStyle=orthogonalEdgeStyle;rounded=0;orthogonalLoop=1;jettySize=auto;html=1;exitX=1;exitY=0.5;exitDx=0;exitDy=0;fontFamily=Verdana;" edge="1" parent="eNNm4vko_xp5jhgznRyM-126" source="eNNm4vko_xp5jhgznRyM-285" target="eNNm4vko_xp5jhgznRyM-289">
          <mxGeometry relative="1" as="geometry" />
        </mxCell>
        <mxCell id="eNNm4vko_xp5jhgznRyM-285" value="&lt;font style=&quot;&quot;&gt;Memotong Saldo &amp;amp; Mengirim Instruksi Transfer&lt;br style=&quot;font-size: 9px;&quot;&gt;&lt;/font&gt;" style="rounded=1;whiteSpace=wrap;html=1;fontFamily=Verdana;fontStyle=1;fontSize=9;" vertex="1" parent="eNNm4vko_xp5jhgznRyM-126">
          <mxGeometry x="2998.9700000000003" y="130" width="70" height="60" as="geometry" />
        </mxCell>
        <mxCell id="eNNm4vko_xp5jhgznRyM-286" value="&lt;font style=&quot;&quot;&gt;Menampilkan Pesan Error&lt;br style=&quot;font-size: 9px;&quot;&gt;&lt;/font&gt;" style="rounded=1;whiteSpace=wrap;html=1;fontFamily=Verdana;fontStyle=1;fontSize=9;" vertex="1" parent="eNNm4vko_xp5jhgznRyM-126">
          <mxGeometry x="2998.9700000000003" y="203.1500000000001" width="71.03" height="61.85" as="geometry" />
        </mxCell>
        <mxCell id="eNNm4vko_xp5jhgznRyM-289" value="&lt;font style=&quot;&quot;&gt;Mengirim Notifikasi Sukses ke User&lt;br style=&quot;font-size: 9px;&quot;&gt;&lt;/font&gt;" style="rounded=1;whiteSpace=wrap;html=1;fontFamily=Verdana;fontStyle=1;fontSize=9;" vertex="1" parent="eNNm4vko_xp5jhgznRyM-126">
          <mxGeometry x="3103" y="130" width="70" height="60" as="geometry" />
        </mxCell>
        <mxCell id="eNNm4vko_xp5jhgznRyM-291" value="" style="points=[[0.25,0.25,0],[0.5,0,0],[0.75,0.25,0],[1,0.5,0],[0.75,0.75,0],[0.5,1,0],[0.25,0.75,0],[0,0.5,0]];shape=mxgraph.bpmn.gateway2;html=1;verticalLabelPosition=bottom;labelBackgroundColor=#ffffff;verticalAlign=top;align=center;perimeter=rhombusPerimeter;outlineConnect=0;outline=none;symbol=none;gwType=exclusive;fontFamily=Verdana;fontStyle=1" vertex="1" parent="eNNm4vko_xp5jhgznRyM-126">
          <mxGeometry x="3260" y="76.70000000000005" width="33.33" height="33.33" as="geometry" />
        </mxCell>
        <mxCell id="eNNm4vko_xp5jhgznRyM-292" style="edgeStyle=orthogonalEdgeStyle;rounded=0;orthogonalLoop=1;jettySize=auto;html=1;exitX=1;exitY=0.5;exitDx=0;exitDy=0;entryX=0.5;entryY=0;entryDx=0;entryDy=0;entryPerimeter=0;fontFamily=Verdana;" edge="1" parent="eNNm4vko_xp5jhgznRyM-126" source="eNNm4vko_xp5jhgznRyM-232" target="eNNm4vko_xp5jhgznRyM-291">
          <mxGeometry relative="1" as="geometry" />
        </mxCell>
        <mxCell id="eNNm4vko_xp5jhgznRyM-293" style="edgeStyle=orthogonalEdgeStyle;rounded=0;orthogonalLoop=1;jettySize=auto;html=1;entryX=0;entryY=0.5;entryDx=0;entryDy=0;entryPerimeter=0;fontFamily=Verdana;" edge="1" parent="eNNm4vko_xp5jhgznRyM-126" source="eNNm4vko_xp5jhgznRyM-257" target="eNNm4vko_xp5jhgznRyM-291">
          <mxGeometry relative="1" as="geometry">
            <Array as="points">
              <mxPoint x="2375" y="93" />
            </Array>
          </mxGeometry>
        </mxCell>
        <mxCell id="eNNm4vko_xp5jhgznRyM-296" style="edgeStyle=orthogonalEdgeStyle;rounded=0;orthogonalLoop=1;jettySize=auto;html=1;entryX=0.5;entryY=1;entryDx=0;entryDy=0;entryPerimeter=0;fontFamily=Verdana;" edge="1" parent="eNNm4vko_xp5jhgznRyM-126" source="eNNm4vko_xp5jhgznRyM-289" target="eNNm4vko_xp5jhgznRyM-291">
          <mxGeometry relative="1" as="geometry" />
        </mxCell>
        <mxCell id="eNNm4vko_xp5jhgznRyM-297" value="&lt;font size=&quot;1&quot;&gt;&lt;b style=&quot;font-size: 9px;&quot;&gt;Sesi Berakhir&lt;/b&gt;&lt;/font&gt;" style="points=[[0.145,0.145,0],[0.5,0,0],[0.855,0.145,0],[1,0.5,0],[0.855,0.855,0],[0.5,1,0],[0.145,0.855,0],[0,0.5,0]];shape=mxgraph.bpmn.event;html=1;verticalLabelPosition=bottom;labelBackgroundColor=#ffffff;verticalAlign=top;align=center;perimeter=ellipsePerimeter;outlineConnect=0;aspect=fixed;outline=end;symbol=terminate;fontFamily=Verdana;" vertex="1" parent="eNNm4vko_xp5jhgznRyM-126">
          <mxGeometry x="3480" y="157.01999999999978" width="30.41" height="30.41" as="geometry" />
        </mxCell>
        <mxCell id="eNNm4vko_xp5jhgznRyM-306" value="&lt;font style=&quot;&quot;&gt;Mengakhiri Sesi Pengguna&lt;br style=&quot;font-size: 9px;&quot;&gt;&lt;/font&gt;" style="rounded=1;whiteSpace=wrap;html=1;fontFamily=Verdana;fontStyle=1;fontSize=9;" vertex="1" parent="eNNm4vko_xp5jhgznRyM-126">
          <mxGeometry x="3350" y="141.29999999999995" width="71.03" height="61.85" as="geometry" />
        </mxCell>
        <mxCell id="eNNm4vko_xp5jhgznRyM-307" style="edgeStyle=orthogonalEdgeStyle;rounded=0;orthogonalLoop=1;jettySize=auto;html=1;exitX=1;exitY=0.5;exitDx=0;exitDy=0;entryX=0;entryY=0.5;entryDx=0;entryDy=0;entryPerimeter=0;fontFamily=Verdana;" edge="1" parent="eNNm4vko_xp5jhgznRyM-126" source="eNNm4vko_xp5jhgznRyM-306" target="eNNm4vko_xp5jhgznRyM-297">
          <mxGeometry relative="1" as="geometry" />
        </mxCell>
        <mxCell id="eNNm4vko_xp5jhgznRyM-228" style="edgeStyle=orthogonalEdgeStyle;rounded=0;orthogonalLoop=1;jettySize=auto;html=1;dashed=1;startArrow=block;startFill=0;endArrow=oval;endFill=0;entryX=0.5;entryY=0;entryDx=0;entryDy=0;exitX=0.5;exitY=1;exitDx=0;exitDy=0;fontFamily=Verdana;" edge="1" parent="eNNm4vko_xp5jhgznRyM-1" source="eNNm4vko_xp5jhgznRyM-218" target="eNNm4vko_xp5jhgznRyM-216">
          <mxGeometry relative="1" as="geometry">
            <Array as="points">
              <mxPoint x="1470" y="620" />
            </Array>
            <mxPoint x="1560" y="680.87" as="sourcePoint" />
            <mxPoint x="1560" y="945.8699999999999" as="targetPoint" />
          </mxGeometry>
        </mxCell>
        <mxCell id="eNNm4vko_xp5jhgznRyM-229" style="edgeStyle=orthogonalEdgeStyle;rounded=0;orthogonalLoop=1;jettySize=auto;html=1;dashed=1;startArrow=block;startFill=0;endArrow=oval;endFill=0;entryX=0.5;entryY=1;entryDx=0;entryDy=0;entryPerimeter=0;exitX=0.5;exitY=0;exitDx=0;exitDy=0;fontFamily=Verdana;" edge="1" parent="eNNm4vko_xp5jhgznRyM-1" source="eNNm4vko_xp5jhgznRyM-223" target="eNNm4vko_xp5jhgznRyM-219">
          <mxGeometry relative="1" as="geometry">
            <Array as="points">
              <mxPoint x="1640" y="710" />
              <mxPoint x="1640" y="710" />
            </Array>
            <mxPoint x="1720" y="680" as="sourcePoint" />
            <mxPoint x="1480" y="843" as="targetPoint" />
          </mxGeometry>
        </mxCell>
        <mxCell id="eNNm4vko_xp5jhgznRyM-260" style="edgeStyle=orthogonalEdgeStyle;rounded=0;orthogonalLoop=1;jettySize=auto;html=1;dashed=1;startArrow=block;startFill=0;endArrow=oval;endFill=0;entryX=0.5;entryY=0;entryDx=0;entryDy=0;exitX=0.5;exitY=1;exitDx=0;exitDy=0;entryPerimeter=0;fontFamily=Verdana;" edge="1" parent="eNNm4vko_xp5jhgznRyM-1" source="eNNm4vko_xp5jhgznRyM-259" target="eNNm4vko_xp5jhgznRyM-255">
          <mxGeometry relative="1" as="geometry">
            <Array as="points">
              <mxPoint x="2210" y="720" />
              <mxPoint x="2210" y="720" />
            </Array>
            <mxPoint x="2151" y="550" as="sourcePoint" />
            <mxPoint x="2150" y="748" as="targetPoint" />
          </mxGeometry>
        </mxCell>
        <mxCell id="eNNm4vko_xp5jhgznRyM-267" style="edgeStyle=orthogonalEdgeStyle;rounded=0;orthogonalLoop=1;jettySize=auto;html=1;dashed=1;startArrow=block;startFill=0;endArrow=oval;endFill=0;entryX=1;entryY=0.5;entryDx=0;entryDy=0;entryPerimeter=0;exitX=0.5;exitY=1;exitDx=0;exitDy=0;exitPerimeter=0;fontFamily=Verdana;" edge="1" parent="eNNm4vko_xp5jhgznRyM-1" source="eNNm4vko_xp5jhgznRyM-266" target="eNNm4vko_xp5jhgznRyM-264">
          <mxGeometry relative="1" as="geometry">
            <Array as="points">
              <mxPoint x="2430" y="957" />
            </Array>
            <mxPoint x="2490" y="320" as="sourcePoint" />
            <mxPoint x="2490" y="1139" as="targetPoint" />
          </mxGeometry>
        </mxCell>
        <mxCell id="eNNm4vko_xp5jhgznRyM-273" style="edgeStyle=orthogonalEdgeStyle;rounded=0;orthogonalLoop=1;jettySize=auto;html=1;dashed=1;startArrow=block;startFill=0;endArrow=oval;endFill=0;entryX=0.5;entryY=1;entryDx=0;entryDy=0;entryPerimeter=0;exitX=0.5;exitY=0;exitDx=0;exitDy=0;fontFamily=Verdana;" edge="1" parent="eNNm4vko_xp5jhgznRyM-1" source="eNNm4vko_xp5jhgznRyM-272" target="eNNm4vko_xp5jhgznRyM-270">
          <mxGeometry relative="1" as="geometry">
            <Array as="points">
              <mxPoint x="2610" y="880" />
              <mxPoint x="2610" y="880" />
            </Array>
            <mxPoint x="2670" y="870" as="sourcePoint" />
            <mxPoint x="2210" y="949" as="targetPoint" />
          </mxGeometry>
        </mxCell>
        <mxCell id="eNNm4vko_xp5jhgznRyM-287" style="edgeStyle=orthogonalEdgeStyle;rounded=0;orthogonalLoop=1;jettySize=auto;html=1;dashed=1;startArrow=block;startFill=0;endArrow=oval;endFill=0;entryX=0.5;entryY=0;entryDx=0;entryDy=0;exitX=0.5;exitY=1;exitDx=0;exitDy=0;fontFamily=Verdana;" edge="1" parent="eNNm4vko_xp5jhgznRyM-1" source="eNNm4vko_xp5jhgznRyM-288" target="eNNm4vko_xp5jhgznRyM-285">
          <mxGeometry relative="1" as="geometry">
            <Array as="points">
              <mxPoint x="3024" y="290" />
              <mxPoint x="3024" y="290" />
            </Array>
            <mxPoint x="3160" y="270" as="sourcePoint" />
            <mxPoint x="3160" y="124" as="targetPoint" />
          </mxGeometry>
        </mxCell>
        <mxCell id="eNNm4vko_xp5jhgznRyM-125" value="User" style="swimlane;horizontal=0;whiteSpace=wrap;html=1;fontFamily=Verdana;fillColor=#dae8fc;strokeColor=#6c8ebf;" vertex="1" parent="1">
          <mxGeometry x="620" y="1264" width="3550" height="576" as="geometry" />
        </mxCell>
        <mxCell id="eNNm4vko_xp5jhgznRyM-128" style="edgeStyle=orthogonalEdgeStyle;rounded=0;orthogonalLoop=1;jettySize=auto;html=1;exitX=1;exitY=0.5;exitDx=0;exitDy=0;fontFamily=Verdana;" edge="1" parent="eNNm4vko_xp5jhgznRyM-125" source="eNNm4vko_xp5jhgznRyM-123" target="eNNm4vko_xp5jhgznRyM-124">
          <mxGeometry relative="1" as="geometry" />
        </mxCell>
        <mxCell id="eNNm4vko_xp5jhgznRyM-123" value="&lt;font style=&quot;font-size: 10px;&quot;&gt;Membuka Aplikasi&lt;/font&gt;" style="ellipse;whiteSpace=wrap;html=1;aspect=fixed;labelPosition=center;verticalLabelPosition=bottom;align=center;verticalAlign=top;spacing=2;fontSize=12;fontFamily=Verdana;fontStyle=1" vertex="1" parent="eNNm4vko_xp5jhgznRyM-125">
          <mxGeometry x="60" y="76.84999999999991" width="34.31" height="34.31" as="geometry" />
        </mxCell>
        <mxCell id="eNNm4vko_xp5jhgznRyM-124" value="&lt;font style=&quot;&quot;&gt;Melihat Halaman Awal&lt;br style=&quot;font-size: 9px;&quot;&gt;&lt;/font&gt;" style="rounded=1;whiteSpace=wrap;html=1;fontFamily=Verdana;fontStyle=1;fontSize=9;" vertex="1" parent="eNNm4vko_xp5jhgznRyM-125">
          <mxGeometry x="160" y="64" width="70" height="60" as="geometry" />
        </mxCell>
        <mxCell id="eNNm4vko_xp5jhgznRyM-133" style="edgeStyle=orthogonalEdgeStyle;rounded=0;orthogonalLoop=1;jettySize=auto;html=1;exitX=1;exitY=0.5;exitDx=0;exitDy=0;exitPerimeter=0;entryX=0;entryY=0.5;entryDx=0;entryDy=0;fontFamily=Verdana;" edge="1" parent="eNNm4vko_xp5jhgznRyM-125" source="eNNm4vko_xp5jhgznRyM-129" target="eNNm4vko_xp5jhgznRyM-132">
          <mxGeometry relative="1" as="geometry" />
        </mxCell>
        <mxCell id="eNNm4vko_xp5jhgznRyM-136" value="Ya" style="edgeLabel;html=1;align=center;verticalAlign=middle;resizable=0;points=[];fontFamily=Verdana;" vertex="1" connectable="0" parent="eNNm4vko_xp5jhgznRyM-133">
          <mxGeometry x="-0.4242" y="1" relative="1" as="geometry">
            <mxPoint y="32" as="offset" />
          </mxGeometry>
        </mxCell>
        <mxCell id="eNNm4vko_xp5jhgznRyM-134" style="edgeStyle=orthogonalEdgeStyle;rounded=0;orthogonalLoop=1;jettySize=auto;html=1;exitX=0.5;exitY=0;exitDx=0;exitDy=0;exitPerimeter=0;entryX=0;entryY=0.5;entryDx=0;entryDy=0;fontFamily=Verdana;" edge="1" parent="eNNm4vko_xp5jhgznRyM-125" source="eNNm4vko_xp5jhgznRyM-129" target="eNNm4vko_xp5jhgznRyM-131">
          <mxGeometry relative="1" as="geometry" />
        </mxCell>
        <mxCell id="eNNm4vko_xp5jhgznRyM-135" value="Tidak" style="edgeLabel;html=1;align=center;verticalAlign=middle;resizable=0;points=[];fontFamily=Verdana;" vertex="1" connectable="0" parent="eNNm4vko_xp5jhgznRyM-134">
          <mxGeometry x="0.1031" y="2" relative="1" as="geometry">
            <mxPoint as="offset" />
          </mxGeometry>
        </mxCell>
        <mxCell id="eNNm4vko_xp5jhgznRyM-129" value="&lt;font size=&quot;1&quot;&gt;Sudah&amp;nbsp;&lt;/font&gt;&lt;div&gt;&lt;font size=&quot;1&quot;&gt;Punya Akun?&lt;/font&gt;&lt;/div&gt;" style="points=[[0.25,0.25,0],[0.5,0,0],[0.75,0.25,0],[1,0.5,0],[0.75,0.75,0],[0.5,1,0],[0.25,0.75,0],[0,0.5,0]];shape=mxgraph.bpmn.gateway2;html=1;verticalLabelPosition=bottom;labelBackgroundColor=#ffffff;verticalAlign=top;align=center;perimeter=rhombusPerimeter;outlineConnect=0;outline=none;symbol=none;gwType=exclusive;fontFamily=Verdana;fontStyle=1" vertex="1" parent="eNNm4vko_xp5jhgznRyM-125">
          <mxGeometry x="280" y="76.84999999999991" width="33.33" height="33.33" as="geometry" />
        </mxCell>
        <mxCell id="eNNm4vko_xp5jhgznRyM-130" style="edgeStyle=orthogonalEdgeStyle;rounded=0;orthogonalLoop=1;jettySize=auto;html=1;exitX=1;exitY=0.5;exitDx=0;exitDy=0;entryX=0;entryY=0.5;entryDx=0;entryDy=0;entryPerimeter=0;fontFamily=Verdana;" edge="1" parent="eNNm4vko_xp5jhgznRyM-125" source="eNNm4vko_xp5jhgznRyM-124" target="eNNm4vko_xp5jhgznRyM-129">
          <mxGeometry relative="1" as="geometry" />
        </mxCell>
        <mxCell id="eNNm4vko_xp5jhgznRyM-138" style="edgeStyle=orthogonalEdgeStyle;rounded=0;orthogonalLoop=1;jettySize=auto;html=1;exitX=1;exitY=0.5;exitDx=0;exitDy=0;entryX=0;entryY=0.5;entryDx=0;entryDy=0;fontFamily=Verdana;" edge="1" parent="eNNm4vko_xp5jhgznRyM-125" source="eNNm4vko_xp5jhgznRyM-131" target="eNNm4vko_xp5jhgznRyM-137">
          <mxGeometry relative="1" as="geometry" />
        </mxCell>
        <mxCell id="eNNm4vko_xp5jhgznRyM-131" value="&lt;font style=&quot;&quot;&gt;Memilih Menu Registrasi&lt;br style=&quot;font-size: 9px;&quot;&gt;&lt;/font&gt;" style="rounded=1;whiteSpace=wrap;html=1;fontFamily=Verdana;fontStyle=1;fontSize=9;" vertex="1" parent="eNNm4vko_xp5jhgznRyM-125">
          <mxGeometry x="410" y="20" width="70" height="60" as="geometry" />
        </mxCell>
        <mxCell id="eNNm4vko_xp5jhgznRyM-166" style="edgeStyle=orthogonalEdgeStyle;rounded=0;orthogonalLoop=1;jettySize=auto;html=1;exitX=1;exitY=0.5;exitDx=0;exitDy=0;fontFamily=Verdana;" edge="1" parent="eNNm4vko_xp5jhgznRyM-125" source="eNNm4vko_xp5jhgznRyM-132" target="eNNm4vko_xp5jhgznRyM-165">
          <mxGeometry relative="1" as="geometry" />
        </mxCell>
        <mxCell id="eNNm4vko_xp5jhgznRyM-132" value="&lt;font style=&quot;&quot;&gt;Memilih Menu Login&lt;br style=&quot;font-size: 9px;&quot;&gt;&lt;/font&gt;" style="rounded=1;whiteSpace=wrap;html=1;fontFamily=Verdana;fontStyle=1;fontSize=9;" vertex="1" parent="eNNm4vko_xp5jhgznRyM-125">
          <mxGeometry x="410" y="129.99999999999991" width="70" height="60" as="geometry" />
        </mxCell>
        <mxCell id="eNNm4vko_xp5jhgznRyM-137" value="&lt;font style=&quot;&quot;&gt;Mengisi Formulir Registrasi&lt;br style=&quot;font-size: 9px;&quot;&gt;&lt;/font&gt;" style="rounded=1;whiteSpace=wrap;html=1;fontFamily=Verdana;fontStyle=1;fontSize=9;" vertex="1" parent="eNNm4vko_xp5jhgznRyM-125">
          <mxGeometry x="520" y="20" width="70" height="60" as="geometry" />
        </mxCell>
        <mxCell id="eNNm4vko_xp5jhgznRyM-148" value="&lt;font style=&quot;&quot;&gt;Menerima &amp;amp; Memasukkan Kode OTP&lt;br style=&quot;font-size: 9px;&quot;&gt;&lt;/font&gt;" style="rounded=1;whiteSpace=wrap;html=1;fontFamily=Verdana;fontStyle=1;fontSize=9;" vertex="1" parent="eNNm4vko_xp5jhgznRyM-125">
          <mxGeometry x="675" y="20" width="70" height="60" as="geometry" />
        </mxCell>
        <mxCell id="eNNm4vko_xp5jhgznRyM-176" style="edgeStyle=orthogonalEdgeStyle;rounded=0;orthogonalLoop=1;jettySize=auto;html=1;exitX=1;exitY=0.5;exitDx=0;exitDy=0;fontFamily=Verdana;" edge="1" parent="eNNm4vko_xp5jhgznRyM-125" source="eNNm4vko_xp5jhgznRyM-165" target="eNNm4vko_xp5jhgznRyM-175">
          <mxGeometry relative="1" as="geometry" />
        </mxCell>
        <mxCell id="eNNm4vko_xp5jhgznRyM-165" value="&lt;font style=&quot;&quot;&gt;Mengisi Email &amp;amp; Password&lt;br style=&quot;font-size: 9px;&quot;&gt;&lt;/font&gt;" style="rounded=1;whiteSpace=wrap;html=1;fontFamily=Verdana;fontStyle=1;fontSize=9;" vertex="1" parent="eNNm4vko_xp5jhgznRyM-125">
          <mxGeometry x="520" y="130" width="70" height="60" as="geometry" />
        </mxCell>
        <mxCell id="eNNm4vko_xp5jhgznRyM-171" style="edgeStyle=orthogonalEdgeStyle;rounded=0;orthogonalLoop=1;jettySize=auto;html=1;exitX=1;exitY=0.5;exitDx=0;exitDy=0;exitPerimeter=0;entryX=0;entryY=0.5;entryDx=0;entryDy=0;fontFamily=Verdana;" edge="1" parent="eNNm4vko_xp5jhgznRyM-125" source="eNNm4vko_xp5jhgznRyM-175" target="eNNm4vko_xp5jhgznRyM-178">
          <mxGeometry relative="1" as="geometry">
            <mxPoint x="710" y="143" as="targetPoint" />
          </mxGeometry>
        </mxCell>
        <mxCell id="eNNm4vko_xp5jhgznRyM-172" value="Ya" style="edgeLabel;html=1;align=center;verticalAlign=middle;resizable=0;points=[];fontFamily=Verdana;" vertex="1" connectable="0" parent="eNNm4vko_xp5jhgznRyM-171">
          <mxGeometry x="-0.4242" y="1" relative="1" as="geometry">
            <mxPoint x="-26" y="1" as="offset" />
          </mxGeometry>
        </mxCell>
        <mxCell id="eNNm4vko_xp5jhgznRyM-175" value="&lt;font size=&quot;1&quot;&gt;Lupa&amp;nbsp;&lt;/font&gt;&lt;div&gt;&lt;font size=&quot;1&quot;&gt;Password?&lt;/font&gt;&lt;/div&gt;" style="points=[[0.25,0.25,0],[0.5,0,0],[0.75,0.25,0],[1,0.5,0],[0.75,0.75,0],[0.5,1,0],[0.25,0.75,0],[0,0.5,0]];shape=mxgraph.bpmn.gateway2;html=1;verticalLabelPosition=bottom;labelBackgroundColor=#ffffff;verticalAlign=top;align=center;perimeter=rhombusPerimeter;outlineConnect=0;outline=none;symbol=none;gwType=exclusive;fontFamily=Verdana;fontStyle=1" vertex="1" parent="eNNm4vko_xp5jhgznRyM-125">
          <mxGeometry x="620" y="125.84999999999991" width="33.33" height="33.33" as="geometry" />
        </mxCell>
        <mxCell id="eNNm4vko_xp5jhgznRyM-192" style="edgeStyle=orthogonalEdgeStyle;rounded=0;orthogonalLoop=1;jettySize=auto;html=1;exitX=1;exitY=0.5;exitDx=0;exitDy=0;entryX=0;entryY=0.5;entryDx=0;entryDy=0;fontFamily=Verdana;" edge="1" parent="eNNm4vko_xp5jhgznRyM-125" source="eNNm4vko_xp5jhgznRyM-178" target="eNNm4vko_xp5jhgznRyM-191">
          <mxGeometry relative="1" as="geometry" />
        </mxCell>
        <mxCell id="eNNm4vko_xp5jhgznRyM-178" value="&lt;font style=&quot;&quot;&gt;Memilih Opsi Lupa Password&lt;br style=&quot;font-size: 9px;&quot;&gt;&lt;/font&gt;" style="rounded=1;whiteSpace=wrap;html=1;fontFamily=Verdana;fontStyle=1;fontSize=9;" vertex="1" parent="eNNm4vko_xp5jhgznRyM-125">
          <mxGeometry x="890" y="112.52" width="70" height="60" as="geometry" />
        </mxCell>
        <mxCell id="eNNm4vko_xp5jhgznRyM-301" style="edgeStyle=orthogonalEdgeStyle;rounded=0;orthogonalLoop=1;jettySize=auto;html=1;exitX=0.5;exitY=1;exitDx=0;exitDy=0;entryX=0;entryY=0.5;entryDx=0;entryDy=0;fontFamily=Verdana;" edge="1" parent="eNNm4vko_xp5jhgznRyM-125" source="eNNm4vko_xp5jhgznRyM-188" target="eNNm4vko_xp5jhgznRyM-300">
          <mxGeometry relative="1" as="geometry" />
        </mxCell>
        <mxCell id="eNNm4vko_xp5jhgznRyM-303" style="edgeStyle=orthogonalEdgeStyle;rounded=0;orthogonalLoop=1;jettySize=auto;html=1;entryX=0;entryY=0.5;entryDx=0;entryDy=0;fontFamily=Verdana;" edge="1" parent="eNNm4vko_xp5jhgznRyM-125" source="eNNm4vko_xp5jhgznRyM-188" target="eNNm4vko_xp5jhgznRyM-302">
          <mxGeometry relative="1" as="geometry" />
        </mxCell>
        <mxCell id="eNNm4vko_xp5jhgznRyM-188" value="&lt;font style=&quot;&quot;&gt;Masuk ke Dasbor Aplikasi&lt;br style=&quot;font-size: 9px;&quot;&gt;&lt;/font&gt;" style="rounded=1;whiteSpace=wrap;html=1;fontFamily=Verdana;fontStyle=1;fontSize=9;" vertex="1" parent="eNNm4vko_xp5jhgznRyM-125">
          <mxGeometry x="736" y="330.9999999999999" width="70" height="60" as="geometry" />
        </mxCell>
        <mxCell id="eNNm4vko_xp5jhgznRyM-191" value="&lt;font style=&quot;&quot;&gt;Memasukkan Email Terdaftar&lt;br style=&quot;font-size: 9px;&quot;&gt;&lt;/font&gt;" style="rounded=1;whiteSpace=wrap;html=1;fontFamily=Verdana;fontStyle=1;fontSize=9;" vertex="1" parent="eNNm4vko_xp5jhgznRyM-125">
          <mxGeometry x="1040" y="112.52000000000007" width="70" height="60" as="geometry" />
        </mxCell>
        <mxCell id="eNNm4vko_xp5jhgznRyM-199" style="edgeStyle=orthogonalEdgeStyle;rounded=0;orthogonalLoop=1;jettySize=auto;html=1;exitX=1;exitY=0.5;exitDx=0;exitDy=0;entryX=0;entryY=0.5;entryDx=0;entryDy=0;fontFamily=Verdana;" edge="1" parent="eNNm4vko_xp5jhgznRyM-125" source="eNNm4vko_xp5jhgznRyM-196" target="eNNm4vko_xp5jhgznRyM-198">
          <mxGeometry relative="1" as="geometry" />
        </mxCell>
        <mxCell id="eNNm4vko_xp5jhgznRyM-196" value="&lt;font style=&quot;&quot;&gt;Membuka Email &amp;amp; Klik Link Reset&lt;br style=&quot;font-size: 9px;&quot;&gt;&lt;/font&gt;" style="rounded=1;whiteSpace=wrap;html=1;fontFamily=Verdana;fontStyle=1;fontSize=9;" vertex="1" parent="eNNm4vko_xp5jhgznRyM-125">
          <mxGeometry x="1150" y="112.50999999999999" width="70" height="60" as="geometry" />
        </mxCell>
        <mxCell id="eNNm4vko_xp5jhgznRyM-198" value="&lt;font style=&quot;&quot;&gt;Membuat Password Baru&lt;br style=&quot;font-size: 9px;&quot;&gt;&lt;/font&gt;" style="rounded=1;whiteSpace=wrap;html=1;fontFamily=Verdana;fontStyle=1;fontSize=9;" vertex="1" parent="eNNm4vko_xp5jhgznRyM-125">
          <mxGeometry x="1253" y="112.51999999999998" width="70" height="60" as="geometry" />
        </mxCell>
        <mxCell id="eNNm4vko_xp5jhgznRyM-211" style="edgeStyle=orthogonalEdgeStyle;rounded=0;orthogonalLoop=1;jettySize=auto;html=1;exitX=0.5;exitY=0;exitDx=0;exitDy=0;exitPerimeter=0;entryX=0;entryY=0.5;entryDx=0;entryDy=0;fontFamily=Verdana;" edge="1" parent="eNNm4vko_xp5jhgznRyM-125" source="eNNm4vko_xp5jhgznRyM-205" target="eNNm4vko_xp5jhgznRyM-208">
          <mxGeometry relative="1" as="geometry" />
        </mxCell>
        <mxCell id="eNNm4vko_xp5jhgznRyM-212" style="edgeStyle=orthogonalEdgeStyle;rounded=0;orthogonalLoop=1;jettySize=auto;html=1;exitX=1;exitY=0.5;exitDx=0;exitDy=0;exitPerimeter=0;fontFamily=Verdana;" edge="1" parent="eNNm4vko_xp5jhgznRyM-125" source="eNNm4vko_xp5jhgznRyM-205" target="eNNm4vko_xp5jhgznRyM-209">
          <mxGeometry relative="1" as="geometry" />
        </mxCell>
        <mxCell id="eNNm4vko_xp5jhgznRyM-213" style="edgeStyle=orthogonalEdgeStyle;rounded=0;orthogonalLoop=1;jettySize=auto;html=1;exitX=0.5;exitY=1;exitDx=0;exitDy=0;exitPerimeter=0;entryX=0;entryY=0.5;entryDx=0;entryDy=0;fontFamily=Verdana;" edge="1" parent="eNNm4vko_xp5jhgznRyM-125" source="eNNm4vko_xp5jhgznRyM-205" target="eNNm4vko_xp5jhgznRyM-210">
          <mxGeometry relative="1" as="geometry" />
        </mxCell>
        <mxCell id="eNNm4vko_xp5jhgznRyM-205" value="" style="points=[[0.25,0.25,0],[0.5,0,0],[0.75,0.25,0],[1,0.5,0],[0.75,0.75,0],[0.5,1,0],[0.25,0.75,0],[0,0.5,0]];shape=mxgraph.bpmn.gateway2;html=1;verticalLabelPosition=bottom;labelBackgroundColor=#ffffff;verticalAlign=top;align=center;perimeter=rhombusPerimeter;outlineConnect=0;outline=end;symbol=general;fontFamily=Verdana;" vertex="1" parent="eNNm4vko_xp5jhgznRyM-125">
          <mxGeometry x="1080" y="336" width="50" height="50" as="geometry" />
        </mxCell>
        <mxCell id="eNNm4vko_xp5jhgznRyM-215" style="edgeStyle=orthogonalEdgeStyle;rounded=0;orthogonalLoop=1;jettySize=auto;html=1;exitX=1;exitY=0.5;exitDx=0;exitDy=0;entryX=0;entryY=0.5;entryDx=0;entryDy=0;fontFamily=Verdana;" edge="1" parent="eNNm4vko_xp5jhgznRyM-125" source="eNNm4vko_xp5jhgznRyM-208" target="eNNm4vko_xp5jhgznRyM-214">
          <mxGeometry relative="1" as="geometry" />
        </mxCell>
        <mxCell id="eNNm4vko_xp5jhgznRyM-208" value="&lt;font style=&quot;&quot;&gt;Memilih Menu Top-Up&lt;br style=&quot;font-size: 9px;&quot;&gt;&lt;/font&gt;" style="rounded=1;whiteSpace=wrap;html=1;fontFamily=Verdana;fontStyle=1;fontSize=9;" vertex="1" parent="eNNm4vko_xp5jhgznRyM-125">
          <mxGeometry x="1190" y="254" width="70" height="60" as="geometry" />
        </mxCell>
        <mxCell id="eNNm4vko_xp5jhgznRyM-235" style="edgeStyle=orthogonalEdgeStyle;rounded=0;orthogonalLoop=1;jettySize=auto;html=1;exitX=1;exitY=0.5;exitDx=0;exitDy=0;fontFamily=Verdana;" edge="1" parent="eNNm4vko_xp5jhgznRyM-125" source="eNNm4vko_xp5jhgznRyM-209" target="eNNm4vko_xp5jhgznRyM-234">
          <mxGeometry relative="1" as="geometry" />
        </mxCell>
        <mxCell id="eNNm4vko_xp5jhgznRyM-209" value="&lt;font style=&quot;&quot;&gt;Memilih Menu Bayar QR&lt;br style=&quot;font-size: 9px;&quot;&gt;&lt;/font&gt;" style="rounded=1;whiteSpace=wrap;html=1;fontFamily=Verdana;fontStyle=1;fontSize=9;" vertex="1" parent="eNNm4vko_xp5jhgznRyM-125">
          <mxGeometry x="1190" y="331" width="70" height="60" as="geometry" />
        </mxCell>
        <mxCell id="eNNm4vko_xp5jhgznRyM-263" style="edgeStyle=orthogonalEdgeStyle;rounded=0;orthogonalLoop=1;jettySize=auto;html=1;exitX=1;exitY=0.5;exitDx=0;exitDy=0;fontFamily=Verdana;" edge="1" parent="eNNm4vko_xp5jhgznRyM-125" source="eNNm4vko_xp5jhgznRyM-210" target="eNNm4vko_xp5jhgznRyM-262">
          <mxGeometry relative="1" as="geometry" />
        </mxCell>
        <mxCell id="eNNm4vko_xp5jhgznRyM-210" value="&lt;font style=&quot;&quot;&gt;Memilih Menu Transfer&lt;br style=&quot;font-size: 9px;&quot;&gt;&lt;/font&gt;" style="rounded=1;whiteSpace=wrap;html=1;fontFamily=Verdana;fontStyle=1;fontSize=9;" vertex="1" parent="eNNm4vko_xp5jhgznRyM-125">
          <mxGeometry x="1190" y="412" width="70" height="60" as="geometry" />
        </mxCell>
        <mxCell id="eNNm4vko_xp5jhgznRyM-214" value="&lt;font style=&quot;&quot;&gt;Memasukkan Jumlah Top-Up&lt;br style=&quot;font-size: 9px;&quot;&gt;&lt;/font&gt;" style="rounded=1;whiteSpace=wrap;html=1;fontFamily=Verdana;fontStyle=1;fontSize=9;" vertex="1" parent="eNNm4vko_xp5jhgznRyM-125">
          <mxGeometry x="1330" y="254" width="70" height="60" as="geometry" />
        </mxCell>
        <mxCell id="eNNm4vko_xp5jhgznRyM-234" value="&lt;font style=&quot;&quot;&gt;Memindai Kode QR Merchant&lt;br style=&quot;font-size: 9px;&quot;&gt;&lt;/font&gt;" style="rounded=1;whiteSpace=wrap;html=1;fontFamily=Verdana;fontStyle=1;fontSize=9;" vertex="1" parent="eNNm4vko_xp5jhgznRyM-125">
          <mxGeometry x="1330" y="331" width="70" height="60" as="geometry" />
        </mxCell>
        <mxCell id="eNNm4vko_xp5jhgznRyM-238" value="&lt;font style=&quot;&quot;&gt;Melihat Detail Pembayaran&lt;br style=&quot;font-size: 9px;&quot;&gt;&lt;/font&gt;" style="rounded=1;whiteSpace=wrap;html=1;fontFamily=Verdana;fontStyle=1;fontSize=9;" vertex="1" parent="eNNm4vko_xp5jhgznRyM-125">
          <mxGeometry x="1637" y="331" width="70" height="60" as="geometry" />
        </mxCell>
        <mxCell id="eNNm4vko_xp5jhgznRyM-245" value="&lt;font style=&quot;&quot;&gt;Mengonfirmasi Pembayaran &amp;amp; Memasukkan PIN&lt;br style=&quot;font-size: 9px;&quot;&gt;&lt;/font&gt;" style="rounded=1;whiteSpace=wrap;html=1;fontFamily=Verdana;fontStyle=1;fontSize=9;" vertex="1" parent="eNNm4vko_xp5jhgznRyM-125">
          <mxGeometry x="1746" y="331" width="80" height="60" as="geometry" />
        </mxCell>
        <mxCell id="eNNm4vko_xp5jhgznRyM-262" value="&lt;font style=&quot;&quot;&gt;Memasukkan Detail Bank &amp;amp; Jumlah Transfer&lt;br style=&quot;font-size: 9px;&quot;&gt;&lt;/font&gt;" style="rounded=1;whiteSpace=wrap;html=1;fontFamily=Verdana;fontStyle=1;fontSize=9;" vertex="1" parent="eNNm4vko_xp5jhgznRyM-125">
          <mxGeometry x="1330" y="412" width="70" height="60" as="geometry" />
        </mxCell>
        <mxCell id="eNNm4vko_xp5jhgznRyM-277" style="edgeStyle=orthogonalEdgeStyle;rounded=0;orthogonalLoop=1;jettySize=auto;html=1;exitX=1;exitY=0.5;exitDx=0;exitDy=0;entryX=0;entryY=0.5;entryDx=0;entryDy=0;fontFamily=Verdana;" edge="1" parent="eNNm4vko_xp5jhgznRyM-125" source="eNNm4vko_xp5jhgznRyM-274" target="eNNm4vko_xp5jhgznRyM-276">
          <mxGeometry relative="1" as="geometry" />
        </mxCell>
        <mxCell id="eNNm4vko_xp5jhgznRyM-274" value="&lt;font style=&quot;&quot;&gt;Mengonfirmasi Transfer&lt;br style=&quot;font-size: 9px;&quot;&gt;&lt;/font&gt;" style="rounded=1;whiteSpace=wrap;html=1;fontFamily=Verdana;fontStyle=1;fontSize=9;" vertex="1" parent="eNNm4vko_xp5jhgznRyM-125">
          <mxGeometry x="2567.5" y="426" width="85" height="60" as="geometry" />
        </mxCell>
        <mxCell id="eNNm4vko_xp5jhgznRyM-276" value="&lt;font style=&quot;&quot;&gt;Memasukkan PIN&lt;br style=&quot;font-size: 9px;&quot;&gt;&lt;/font&gt;" style="rounded=1;whiteSpace=wrap;html=1;fontFamily=Verdana;fontStyle=1;fontSize=9;" vertex="1" parent="eNNm4vko_xp5jhgznRyM-125">
          <mxGeometry x="2695" y="426" width="85" height="60" as="geometry" />
        </mxCell>
        <mxCell id="eNNm4vko_xp5jhgznRyM-300" value="&lt;font style=&quot;&quot;&gt;Memilih Menu Logout&lt;br style=&quot;font-size: 9px;&quot;&gt;&lt;/font&gt;" style="rounded=1;whiteSpace=wrap;html=1;fontFamily=Verdana;fontStyle=1;fontSize=9;" vertex="1" parent="eNNm4vko_xp5jhgznRyM-125">
          <mxGeometry x="910" y="476" width="70" height="60" as="geometry" />
        </mxCell>
        <mxCell id="eNNm4vko_xp5jhgznRyM-302" value="&lt;font style=&quot;&quot;&gt;Memilih Menu Pembayaran&lt;br style=&quot;font-size: 9px;&quot;&gt;&lt;/font&gt;" style="rounded=1;whiteSpace=wrap;html=1;fontFamily=Verdana;fontStyle=1;fontSize=9;" vertex="1" parent="eNNm4vko_xp5jhgznRyM-125">
          <mxGeometry x="910" y="331" width="70" height="60" as="geometry" />
        </mxCell>
        <mxCell id="eNNm4vko_xp5jhgznRyM-304" style="edgeStyle=orthogonalEdgeStyle;rounded=0;orthogonalLoop=1;jettySize=auto;html=1;entryX=0;entryY=0.5;entryDx=0;entryDy=0;entryPerimeter=0;fontFamily=Verdana;" edge="1" parent="eNNm4vko_xp5jhgznRyM-125" source="eNNm4vko_xp5jhgznRyM-302" target="eNNm4vko_xp5jhgznRyM-205">
          <mxGeometry relative="1" as="geometry" />
        </mxCell>
        <mxCell id="eNNm4vko_xp5jhgznRyM-117" style="edgeStyle=orthogonalEdgeStyle;rounded=0;orthogonalLoop=1;jettySize=auto;html=1;entryX=0.5;entryY=0;entryDx=0;entryDy=0;dashed=1;startArrow=block;startFill=0;endArrow=oval;endFill=0;exitX=0.5;exitY=1;exitDx=0;exitDy=0;fontFamily=Verdana;" edge="1" parent="1" source="eNNm4vko_xp5jhgznRyM-139" target="eNNm4vko_xp5jhgznRyM-137">
          <mxGeometry relative="1" as="geometry">
            <Array as="points">
              <mxPoint x="785" y="1230" />
              <mxPoint x="1185" y="1230" />
            </Array>
            <mxPoint x="1195.0000000000002" y="870.4666666666667" as="targetPoint" />
          </mxGeometry>
        </mxCell>
        <mxCell id="eNNm4vko_xp5jhgznRyM-149" style="edgeStyle=orthogonalEdgeStyle;rounded=0;orthogonalLoop=1;jettySize=auto;html=1;dashed=1;startArrow=block;startFill=0;endArrow=oval;endFill=0;entryX=1;entryY=0.5;entryDx=0;entryDy=0;exitX=0;exitY=0.5;exitDx=0;exitDy=0;fontFamily=Verdana;" edge="1" parent="1" source="eNNm4vko_xp5jhgznRyM-148" target="eNNm4vko_xp5jhgznRyM-146">
          <mxGeometry relative="1" as="geometry">
            <Array as="points">
              <mxPoint x="1280" y="1314" />
              <mxPoint x="1280" y="1080" />
              <mxPoint x="1080" y="1080" />
            </Array>
            <mxPoint x="1340" y="1230" as="sourcePoint" />
            <mxPoint x="1090" y="1100" as="targetPoint" />
          </mxGeometry>
        </mxCell>
        <mxCell id="eNNm4vko_xp5jhgznRyM-153" style="edgeStyle=orthogonalEdgeStyle;rounded=0;orthogonalLoop=1;jettySize=auto;html=1;dashed=1;startArrow=block;startFill=0;endArrow=oval;endFill=0;entryX=0.5;entryY=0;entryDx=0;entryDy=0;exitX=0.5;exitY=1;exitDx=0;exitDy=0;fontFamily=Verdana;" edge="1" parent="1" source="eNNm4vko_xp5jhgznRyM-152" target="eNNm4vko_xp5jhgznRyM-148">
          <mxGeometry relative="1" as="geometry">
            <Array as="points" />
            <mxPoint x="1415" y="1240" as="sourcePoint" />
            <mxPoint x="1195" y="1110" as="targetPoint" />
          </mxGeometry>
        </mxCell>
        <mxCell id="eNNm4vko_xp5jhgznRyM-168" style="edgeStyle=orthogonalEdgeStyle;rounded=0;orthogonalLoop=1;jettySize=auto;html=1;dashed=1;startArrow=block;startFill=0;endArrow=oval;endFill=0;exitX=0.5;exitY=1;exitDx=0;exitDy=0;entryX=0.5;entryY=0;entryDx=0;entryDy=0;entryPerimeter=0;fontFamily=Verdana;" edge="1" parent="1" source="eNNm4vko_xp5jhgznRyM-167" target="eNNm4vko_xp5jhgznRyM-175">
          <mxGeometry relative="1" as="geometry">
            <Array as="points">
              <mxPoint x="1245" y="1390" />
            </Array>
            <mxPoint x="1395" y="1335" as="sourcePoint" />
            <mxPoint x="1250" y="1330" as="targetPoint" />
          </mxGeometry>
        </mxCell>
        <mxCell id="eNNm4vko_xp5jhgznRyM-177" value="Tidak" style="edgeLabel;html=1;align=center;verticalAlign=middle;resizable=0;points=[];fontFamily=Verdana;" vertex="1" connectable="0" parent="eNNm4vko_xp5jhgznRyM-168">
          <mxGeometry x="0.7191" relative="1" as="geometry">
            <mxPoint y="-23" as="offset" />
          </mxGeometry>
        </mxCell>
        <mxCell id="eNNm4vko_xp5jhgznRyM-170" style="edgeStyle=orthogonalEdgeStyle;rounded=0;orthogonalLoop=1;jettySize=auto;html=1;dashed=1;startArrow=block;startFill=0;endArrow=oval;endFill=0;entryX=0.5;entryY=1;entryDx=0;entryDy=0;entryPerimeter=0;exitX=0.5;exitY=0;exitDx=0;exitDy=0;fontFamily=Verdana;" edge="1" parent="1" source="eNNm4vko_xp5jhgznRyM-165" target="eNNm4vko_xp5jhgznRyM-163">
          <mxGeometry relative="1" as="geometry">
            <Array as="points">
              <mxPoint x="1185" y="1360" />
              <mxPoint x="1727" y="1360" />
            </Array>
            <mxPoint x="1490" y="1360" as="sourcePoint" />
            <mxPoint x="1340" y="1348" as="targetPoint" />
          </mxGeometry>
        </mxCell>
        <mxCell id="eNNm4vko_xp5jhgznRyM-189" style="edgeStyle=orthogonalEdgeStyle;rounded=0;orthogonalLoop=1;jettySize=auto;html=1;dashed=1;startArrow=block;startFill=0;endArrow=oval;endFill=0;exitX=0.5;exitY=0;exitDx=0;exitDy=0;fontFamily=Verdana;" edge="1" parent="1" source="eNNm4vko_xp5jhgznRyM-188">
          <mxGeometry relative="1" as="geometry">
            <Array as="points">
              <mxPoint x="1390" y="1470" />
              <mxPoint x="1390" y="1010" />
            </Array>
            <mxPoint x="1500" y="1250" as="sourcePoint" />
            <mxPoint x="1327" y="1010" as="targetPoint" />
          </mxGeometry>
        </mxCell>
        <mxCell id="eNNm4vko_xp5jhgznRyM-190" value="Ya" style="edgeLabel;html=1;align=center;verticalAlign=middle;resizable=0;points=[];fontFamily=Verdana;" vertex="1" connectable="0" parent="eNNm4vko_xp5jhgznRyM-189">
          <mxGeometry x="0.6173" y="1" relative="1" as="geometry">
            <mxPoint as="offset" />
          </mxGeometry>
        </mxCell>
        <mxCell id="eNNm4vko_xp5jhgznRyM-194" style="edgeStyle=orthogonalEdgeStyle;rounded=0;orthogonalLoop=1;jettySize=auto;html=1;dashed=1;startArrow=block;startFill=0;endArrow=oval;endFill=0;entryX=0.5;entryY=0;entryDx=0;entryDy=0;exitX=0.5;exitY=1;exitDx=0;exitDy=0;fontFamily=Verdana;" edge="1" parent="1" source="eNNm4vko_xp5jhgznRyM-193" target="eNNm4vko_xp5jhgznRyM-191">
          <mxGeometry relative="1" as="geometry">
            <Array as="points">
              <mxPoint x="1765" y="1220" />
              <mxPoint x="1695" y="1220" />
            </Array>
            <mxPoint x="1542" y="1512" as="sourcePoint" />
            <mxPoint x="1440" y="1220" as="targetPoint" />
          </mxGeometry>
        </mxCell>
        <mxCell id="eNNm4vko_xp5jhgznRyM-197" style="edgeStyle=orthogonalEdgeStyle;rounded=0;orthogonalLoop=1;jettySize=auto;html=1;dashed=1;startArrow=block;startFill=0;endArrow=oval;endFill=0;entryX=1;entryY=0.5;entryDx=0;entryDy=0;exitX=0.5;exitY=0;exitDx=0;exitDy=0;fontFamily=Verdana;" edge="1" parent="1" source="eNNm4vko_xp5jhgznRyM-196" target="eNNm4vko_xp5jhgznRyM-193">
          <mxGeometry relative="1" as="geometry">
            <Array as="points">
              <mxPoint x="1805" y="1080" />
              <mxPoint x="1800" y="1080" />
            </Array>
            <mxPoint x="1830" y="1170" as="sourcePoint" />
            <mxPoint x="1760" y="1475" as="targetPoint" />
          </mxGeometry>
        </mxCell>
        <mxCell id="eNNm4vko_xp5jhgznRyM-201" style="edgeStyle=orthogonalEdgeStyle;rounded=0;orthogonalLoop=1;jettySize=auto;html=1;dashed=1;startArrow=block;startFill=0;endArrow=oval;endFill=0;entryX=0.5;entryY=0;entryDx=0;entryDy=0;exitX=0.5;exitY=1;exitDx=0;exitDy=0;fontFamily=Verdana;" edge="1" parent="1" source="eNNm4vko_xp5jhgznRyM-200" target="eNNm4vko_xp5jhgznRyM-198">
          <mxGeometry relative="1" as="geometry">
            <Array as="points">
              <mxPoint x="1908" y="1310" />
              <mxPoint x="1908" y="1310" />
            </Array>
            <mxPoint x="1910" y="1170" as="sourcePoint" />
            <mxPoint x="1800" y="1230" as="targetPoint" />
          </mxGeometry>
        </mxCell>
        <mxCell id="eNNm4vko_xp5jhgznRyM-204" style="edgeStyle=orthogonalEdgeStyle;rounded=0;orthogonalLoop=1;jettySize=auto;html=1;dashed=1;startArrow=block;startFill=0;endArrow=oval;endFill=0;entryX=0.5;entryY=1;entryDx=0;entryDy=0;entryPerimeter=0;exitX=0.75;exitY=0;exitDx=0;exitDy=0;fontFamily=Verdana;" edge="1" parent="1" source="eNNm4vko_xp5jhgznRyM-165" target="eNNm4vko_xp5jhgznRyM-202">
          <mxGeometry relative="1" as="geometry">
            <Array as="points">
              <mxPoint x="1193" y="1350" />
              <mxPoint x="2012" y="1350" />
            </Array>
            <mxPoint x="1660" y="1498" as="sourcePoint" />
            <mxPoint x="2147" y="1200" as="targetPoint" />
          </mxGeometry>
        </mxCell>
        <mxCell id="eNNm4vko_xp5jhgznRyM-217" style="edgeStyle=orthogonalEdgeStyle;rounded=0;orthogonalLoop=1;jettySize=auto;html=1;dashed=1;startArrow=block;startFill=0;endArrow=oval;endFill=0;entryX=1;entryY=0.5;entryDx=0;entryDy=0;exitX=0.5;exitY=1;exitDx=0;exitDy=0;fontFamily=Verdana;" edge="1" parent="1" source="eNNm4vko_xp5jhgznRyM-216" target="eNNm4vko_xp5jhgznRyM-214">
          <mxGeometry relative="1" as="geometry">
            <Array as="points">
              <mxPoint x="2090" y="1548" />
            </Array>
            <mxPoint x="1910" y="1250" as="sourcePoint" />
            <mxPoint x="1910" y="1515" as="targetPoint" />
          </mxGeometry>
        </mxCell>
        <mxCell id="eNNm4vko_xp5jhgznRyM-237" style="edgeStyle=orthogonalEdgeStyle;rounded=0;orthogonalLoop=1;jettySize=auto;html=1;dashed=1;startArrow=block;startFill=0;endArrow=oval;endFill=0;entryX=1;entryY=0.5;entryDx=0;entryDy=0;exitX=0.5;exitY=1;exitDx=0;exitDy=0;fontFamily=Verdana;" edge="1" parent="1" source="eNNm4vko_xp5jhgznRyM-236" target="eNNm4vko_xp5jhgznRyM-234">
          <mxGeometry relative="1" as="geometry">
            <Array as="points">
              <mxPoint x="2165" y="1625" />
            </Array>
            <mxPoint x="2250" y="1550" as="sourcePoint" />
            <mxPoint x="1950" y="2075" as="targetPoint" />
          </mxGeometry>
        </mxCell>
        <mxCell id="eNNm4vko_xp5jhgznRyM-243" style="edgeStyle=orthogonalEdgeStyle;rounded=0;orthogonalLoop=1;jettySize=auto;html=1;dashed=1;startArrow=block;startFill=0;endArrow=oval;endFill=0;entryX=0.5;entryY=1;entryDx=0;entryDy=0;exitX=0.5;exitY=0;exitDx=0;exitDy=0;fontFamily=Verdana;" edge="1" parent="1" source="eNNm4vko_xp5jhgznRyM-238" target="eNNm4vko_xp5jhgznRyM-239">
          <mxGeometry relative="1" as="geometry">
            <Array as="points">
              <mxPoint x="2291" y="1308" />
            </Array>
            <mxPoint x="2280" y="1308" as="sourcePoint" />
            <mxPoint x="2280" y="1120" as="targetPoint" />
          </mxGeometry>
        </mxCell>
        <mxCell id="eNNm4vko_xp5jhgznRyM-246" style="edgeStyle=orthogonalEdgeStyle;rounded=0;orthogonalLoop=1;jettySize=auto;html=1;dashed=1;startArrow=block;startFill=0;endArrow=oval;endFill=0;entryX=0.5;entryY=0;entryDx=0;entryDy=0;exitX=0.5;exitY=1;exitDx=0;exitDy=0;fontFamily=Verdana;" edge="1" parent="1" source="eNNm4vko_xp5jhgznRyM-244" target="eNNm4vko_xp5jhgznRyM-245">
          <mxGeometry relative="1" as="geometry">
            <Array as="points">
              <mxPoint x="2405" y="1595" />
            </Array>
            <mxPoint x="2291" y="1692" as="sourcePoint" />
            <mxPoint x="2290" y="1210" as="targetPoint" />
          </mxGeometry>
        </mxCell>
        <mxCell id="eNNm4vko_xp5jhgznRyM-265" style="edgeStyle=orthogonalEdgeStyle;rounded=0;orthogonalLoop=1;jettySize=auto;html=1;dashed=1;startArrow=block;startFill=0;endArrow=oval;endFill=0;entryX=1;entryY=0.5;entryDx=0;entryDy=0;exitX=0.5;exitY=1;exitDx=0;exitDy=0;exitPerimeter=0;fontFamily=Verdana;" edge="1" parent="1" source="eNNm4vko_xp5jhgznRyM-264" target="eNNm4vko_xp5jhgznRyM-262">
          <mxGeometry relative="1" as="geometry">
            <Array as="points">
              <mxPoint x="2830" y="1706" />
            </Array>
            <mxPoint x="2535" y="1450" as="sourcePoint" />
            <mxPoint x="2160" y="1962" as="targetPoint" />
          </mxGeometry>
        </mxCell>
        <mxCell id="eNNm4vko_xp5jhgznRyM-275" style="edgeStyle=orthogonalEdgeStyle;rounded=0;orthogonalLoop=1;jettySize=auto;html=1;dashed=1;startArrow=block;startFill=0;endArrow=oval;endFill=0;entryX=0.5;entryY=1;entryDx=0;entryDy=0;exitX=0.5;exitY=0;exitDx=0;exitDy=0;fontFamily=Verdana;" edge="1" parent="1" source="eNNm4vko_xp5jhgznRyM-274" target="eNNm4vko_xp5jhgznRyM-272">
          <mxGeometry relative="1" as="geometry">
            <Array as="points">
              <mxPoint x="3230" y="1690" />
            </Array>
            <mxPoint x="3300" y="2035" as="sourcePoint" />
            <mxPoint x="3300" y="1270" as="targetPoint" />
          </mxGeometry>
        </mxCell>
        <mxCell id="eNNm4vko_xp5jhgznRyM-279" style="edgeStyle=orthogonalEdgeStyle;rounded=0;orthogonalLoop=1;jettySize=auto;html=1;dashed=1;startArrow=block;startFill=0;endArrow=oval;endFill=0;entryX=0.5;entryY=0;entryDx=0;entryDy=0;exitX=0.5;exitY=1;exitDx=0;exitDy=0;fontFamily=Verdana;" edge="1" parent="1" source="eNNm4vko_xp5jhgznRyM-278" target="eNNm4vko_xp5jhgznRyM-276">
          <mxGeometry relative="1" as="geometry">
            <Array as="points">
              <mxPoint x="3358" y="1142" />
            </Array>
            <mxPoint x="3230" y="1766" as="sourcePoint" />
            <mxPoint x="3230" y="1220" as="targetPoint" />
          </mxGeometry>
        </mxCell>
        <mxCell id="eNNm4vko_xp5jhgznRyM-299" style="edgeStyle=orthogonalEdgeStyle;rounded=0;orthogonalLoop=1;jettySize=auto;html=1;dashed=1;startArrow=block;startFill=0;endArrow=oval;endFill=0;entryX=1;entryY=0.5;entryDx=0;entryDy=0;exitX=0.75;exitY=0;exitDx=0;exitDy=0;entryPerimeter=0;fontFamily=Verdana;" edge="1" parent="1" source="eNNm4vko_xp5jhgznRyM-188" target="eNNm4vko_xp5jhgznRyM-291">
          <mxGeometry relative="1" as="geometry">
            <Array as="points">
              <mxPoint x="1409" y="1486" />
              <mxPoint x="3930" y="1486" />
              <mxPoint x="3930" y="993" />
            </Array>
            <mxPoint x="3960" y="1486" as="sourcePoint" />
            <mxPoint x="3960" y="940" as="targetPoint" />
          </mxGeometry>
        </mxCell>
        <mxCell id="eNNm4vko_xp5jhgznRyM-305" style="edgeStyle=orthogonalEdgeStyle;rounded=0;orthogonalLoop=1;jettySize=auto;html=1;dashed=1;startArrow=block;startFill=0;endArrow=oval;endFill=0;entryX=1;entryY=0.5;entryDx=0;entryDy=0;exitX=0.5;exitY=1;exitDx=0;exitDy=0;fontFamily=Verdana;" edge="1" parent="1" source="eNNm4vko_xp5jhgznRyM-306" target="eNNm4vko_xp5jhgznRyM-300">
          <mxGeometry relative="1" as="geometry">
            <Array as="points">
              <mxPoint x="3996" y="1770" />
            </Array>
            <mxPoint x="4070" y="1160" as="sourcePoint" />
            <mxPoint x="2570" y="2221" as="targetPoint" />
          </mxGeometry>
        </mxCell>
      </root>
    </mxGraphModel>
  </diagram>
</mxfile>
